<?xml version="1.0" encoding="UTF-8" standalone="no"?>
<!DOCTYPE svg PUBLIC "-//W3C//DTD SVG 1.1//EN" "http://www.w3.org/Graphics/SVG/1.1/DTD/svg11.dtd">
<svg width="842px" height="350px" version="1.1" xmlns="http://www.w3.org/2000/svg" xmlns:xlink="http://www.w3.org/1999/xlink" xml:space="preserve" xmlns:serif="http://www.serif.com/" style="fill-rule:evenodd;clip-rule:evenodd;stroke-linejoin:round;stroke-miterlimit:2;">
    <g transform="matrix(1,0,0,1,0.8,-127.25)">
        <g>
            <g>
                <g>
                    <g>
                        <path id="SVGID_3_" d="M322.1,237.8C305.4,237.8 297,244.5 297,258L297,271.1C297,282.9 305.3,288.8 322,288.8L391.2,288.8C394.3,288.8 395.9,289.8 395.9,291.8L395.9,298.5C395.9,300.4 394.3,301.4 391.2,301.4L299.7,301.4L299.7,320.7L391.2,320.7C407.8,320.7 416.2,314 416.2,300.6L416.2,289.3C416.2,276.1 407.9,269.5 391.3,269.5L322.1,269.5C318.9,269.5 317.3,268.5 317.3,266.5L317.3,260.1C317.3,258.1 318.9,257.1 322.1,257.1L413.6,257.1L413.6,237.8L322.1,237.8Z" style="fill:url(#_Linear1);fill-rule:nonzero;"/>
                        <clipPath id="_clip2">
                            <path d="M322.1,237.8C305.4,237.8 297,244.5 297,258L297,271.1C297,282.9 305.3,288.8 322,288.8L391.2,288.8C394.3,288.8 395.9,289.8 395.9,291.8L395.9,298.5C395.9,300.4 394.3,301.4 391.2,301.4L299.7,301.4L299.7,320.7L391.2,320.7C407.8,320.7 416.2,314 416.2,300.6L416.2,289.3C416.2,276.1 407.9,269.5 391.3,269.5L322.1,269.5C318.9,269.5 317.3,268.5 317.3,266.5L317.3,260.1C317.3,258.1 318.9,257.1 322.1,257.1L413.6,257.1L413.6,237.8L322.1,237.8Z"/>
                        </clipPath>
                        <g clip-path="url(#_clip2)">
                            <rect x="297" y="237.8" width="119.2" height="82.9" style="fill:url(#_Linear3);"/>
                        </g>
                    </g>
                </g>
            </g>
            <g>
                <g>
                    <g>
                        <rect id="SVGID_11_" x="446.9" y="237.8" width="20.3" height="82.9" style="fill:url(#_Linear4);"/>
                        <rect x="446.9" y="237.8" width="20.3" height="82.9" style="fill:url(#_Linear5);"/>
                    </g>
                </g>
            </g>
            <g>
                <g>
                    <g>
                        <path id="SVGID_19_" d="M521.3,257.1L597.9,257.1C605.1,257.1 608.8,259.5 608.8,264.2L608.8,294.4C608.8,299.1 605.2,301.4 597.9,301.4L521.3,301.4L521.3,257.1ZM501,237.8L501,320.7L597.9,320.7C618.7,320.7 629.1,311.9 629.1,294.4L629.1,264.2C629.1,246.6 618.7,237.8 597.9,237.8L501,237.8Z" style="fill:url(#_Linear6);fill-rule:nonzero;"/>
                        <clipPath id="_clip7">
                            <path d="M521.3,257.1L597.9,257.1C605.1,257.1 608.8,259.5 608.8,264.2L608.8,294.4C608.8,299.1 605.2,301.4 597.9,301.4L521.3,301.4L521.3,257.1ZM501,237.8L501,320.7L597.9,320.7C618.7,320.7 629.1,311.9 629.1,294.4L629.1,264.2C629.1,246.6 618.7,237.8 597.9,237.8L501,237.8Z"/>
                        </clipPath>
                        <g clip-path="url(#_clip7)">
                            <rect x="501" y="237.8" width="128.1" height="82.9" style="fill:url(#_Linear8);"/>
                        </g>
                    </g>
                </g>
            </g>
            <g>
                <g>
                    <g>
                        <path id="SVGID_27_" d="M685.1,237.8C668.4,237.8 660.1,244.5 660.1,258L660.1,300.4C660.1,313.9 668.4,320.7 685.1,320.7L776.6,320.7L776.6,301.4L685.1,301.4C682,301.4 680.4,300 680.4,297.3L680.4,288.8L775.6,288.8L775.6,269.5L680.4,269.5L680.4,261.1C680.4,258.4 682,257.1 685.1,257.1L776.3,257.1L776.3,237.8L685.1,237.8Z" style="fill:url(#_Linear9);fill-rule:nonzero;"/>
                        <clipPath id="_clip10">
                            <path d="M685.1,237.8C668.4,237.8 660.1,244.5 660.1,258L660.1,300.4C660.1,313.9 668.4,320.7 685.1,320.7L776.6,320.7L776.6,301.4L685.1,301.4C682,301.4 680.4,300 680.4,297.3L680.4,288.8L775.6,288.8L775.6,269.5L680.4,269.5L680.4,261.1C680.4,258.4 682,257.1 685.1,257.1L776.3,257.1L776.3,237.8L685.1,237.8Z"/>
                        </clipPath>
                        <g clip-path="url(#_clip10)">
                            <rect x="660.2" y="237.8" width="116.5" height="82.9" style="fill:url(#_Linear11);"/>
                        </g>
                    </g>
                </g>
            </g>
            <g>
                <g>
                    <g>
                        <path id="SVGID_35_" d="M199.4,188.2L199.4,196.6L199.3,196.6L199.3,225.4L219.1,225.4L219.1,204L248.1,204L248.1,336.2L163.1,396.8L163.1,416.3L265.3,343.5L265.3,188.2L199.4,188.2Z" style="fill:url(#_Linear12);fill-rule:nonzero;"/>
                        <clipPath id="_clip13">
                            <path d="M199.4,188.2L199.4,196.6L199.3,196.6L199.3,225.4L219.1,225.4L219.1,204L248.1,204L248.1,336.2L163.1,396.8L163.1,416.3L265.3,343.5L265.3,188.2L199.4,188.2Z"/>
                        </clipPath>
                        <g clip-path="url(#_clip13)">
                            <rect x="163.1" y="188.2" width="102.2" height="228.1" style="fill:url(#_Linear14);"/>
                        </g>
                    </g>
                </g>
            </g>
            <g>
                <g>
                    <g>
                        <path id="SVGID_43_" d="M126.3,333.1L106.6,333.1L106.6,354.9L80.9,334.8L80.9,204L163.1,204L163.1,188.2L63.7,188.2L63.7,341.9L126.4,392.1L126.4,372.5L126.3,372.4L126.3,333.1Z" style="fill:url(#_Linear15);fill-rule:nonzero;"/>
                        <clipPath id="_clip16">
                            <path d="M126.3,333.1L106.6,333.1L106.6,354.9L80.9,334.8L80.9,204L163.1,204L163.1,188.2L63.7,188.2L63.7,341.9L126.4,392.1L126.4,372.5L126.3,372.4L126.3,333.1Z"/>
                        </clipPath>
                        <g clip-path="url(#_clip16)">
                            <rect x="63.7" y="188.2" width="99.4" height="203.9" style="fill:url(#_Linear17);"/>
                        </g>
                    </g>
                </g>
            </g>
            <g>
                <g>
                    <g>
                        <path id="SVGID_51_" d="M199.3,237.8L199.3,301.4L198.3,301.4C196.1,301.4 193.9,300.8 191.9,299.5C189.8,298.3 188.1,296.8 186.6,295.1L152.1,249C148.6,245.1 145,242.3 141.3,240.5C137.5,238.7 132.9,237.8 127.4,237.8L106.7,237.8L106.7,320.7L126.4,320.7L126.4,257.1L127.4,257.1C129.6,257.1 131.8,257.7 133.9,258.9C136,260.1 137.8,261.6 139.2,263.3L172.8,309C176.2,313.1 179.9,316 183.8,317.9C187.8,319.8 192.6,320.7 198.4,320.7L219.2,320.7L219.2,237.8L199.3,237.8Z" style="fill:url(#_Linear18);fill-rule:nonzero;"/>
                        <clipPath id="_clip19">
                            <path d="M199.3,237.8L199.3,301.4L198.3,301.4C196.1,301.4 193.9,300.8 191.9,299.5C189.8,298.3 188.1,296.8 186.6,295.1L152.1,249C148.6,245.1 145,242.3 141.3,240.5C137.5,238.7 132.9,237.8 127.4,237.8L106.7,237.8L106.7,320.7L126.4,320.7L126.4,257.1L127.4,257.1C129.6,257.1 131.8,257.7 133.9,258.9C136,260.1 137.8,261.6 139.2,263.3L172.8,309C176.2,313.1 179.9,316 183.8,317.9C187.8,319.8 192.6,320.7 198.4,320.7L219.2,320.7L219.2,237.8L199.3,237.8Z"/>
                        </clipPath>
                        <g clip-path="url(#_clip19)">
                            <rect x="106.6" y="237.8" width="112.5" height="82.9" style="fill:url(#_Linear20);"/>
                        </g>
                    </g>
                </g>
            </g>
            <g>
                <g>
                    <g>
                        <path d="M329.7,375.2L307,375.2L303.9,380.7L296,380.7L310.7,355.1C310.9,354.7 311.1,354.4 311.3,354.1C311.5,353.8 311.8,353.6 312.1,353.4C312.4,353.2 312.8,353.1 313.2,352.9C313.6,352.8 314.1,352.7 314.8,352.7L321.9,352.7C323.8,352.7 325.3,353.5 326.2,355L340.8,380.7L332.9,380.7L329.7,375.2ZM310.3,369L326.3,369L321.4,360.5C321.1,360 320.9,359.7 320.5,359.5C320.2,359.3 319.9,359.2 319.5,359.2L317,359.2C316.3,359.2 315.6,359.6 315.1,360.5L310.3,369Z" style="fill:rgb(0,159,227);fill-rule:nonzero;"/>
                        <path d="M337,352.8L376.3,352.8L376.3,359.3L360.2,359.3L360.2,380.8L353.3,380.8L353.3,359.3L337,359.3L337,352.8Z" style="fill:rgb(0,159,227);fill-rule:nonzero;"/>
                        <path d="M383,352.7L422.3,352.7L422.3,359.2L406.2,359.2L406.2,380.7L399.3,380.7L399.3,359.2L383,359.2L383,352.7Z" style="fill:rgb(0,159,227);fill-rule:nonzero;"/>
                        <path d="M452,375.2L429.3,375.2L426.2,380.7L418.3,380.7L433,355.1C433.2,354.7 433.4,354.4 433.6,354.1C433.8,353.8 434.1,353.6 434.4,353.4C434.7,353.2 435.1,353.1 435.5,352.9C435.9,352.8 436.4,352.7 437.1,352.7L444.2,352.7C446.1,352.7 447.6,353.5 448.5,355L463.1,380.7L455.2,380.7L452,375.2ZM432.6,369L448.6,369L443.7,360.5C443.4,360 443.2,359.7 442.8,359.5C442.5,359.3 442.2,359.2 441.8,359.2L439.1,359.2C438.4,359.2 437.7,359.6 437.2,360.5L432.6,369Z" style="fill:rgb(0,159,227);fill-rule:nonzero;"/>
                        <path d="M507.1,374.2L507.1,380.7L475.1,380.7C469.5,380.7 466.7,378.4 466.7,373.8L466.7,359.5C466.7,355 469.5,352.7 475.1,352.7L507,352.7L507,359.2L475.1,359.2C474.1,359.2 473.5,359.7 473.5,360.6L473.5,372.8C473.5,373.7 474,374.2 475.1,374.2L507.1,374.2Z" style="fill:rgb(0,159,227);fill-rule:nonzero;"/>
                        <path d="M520.7,352.8L520.7,363.1L533.3,363.1L543.7,352.8L553.2,352.8L539.2,365.8L554.2,380.8L544.7,380.8L533.7,369.5L520.7,369.5L520.7,380.8L513.8,380.8L513.8,352.8L520.7,352.8Z" style="fill:rgb(0,159,227);fill-rule:nonzero;"/>
                        <path d="M588.2,380.7C582.6,380.7 579.8,378.4 579.8,373.9L579.8,352.7L586.7,352.7L586.7,372.9C586.7,373.8 587.2,374.2 588.3,374.2L618.8,374.2L618.8,380.7L588.2,380.7Z" style="fill:rgb(0,159,227);fill-rule:nonzero;"/>
                        <path d="M635.4,380.8C628.4,380.8 624.9,377.8 624.9,371.9L624.9,361.7C624.9,355.7 628.4,352.8 635.4,352.8L657,352.8C664,352.8 667.5,355.8 667.5,361.7L667.5,371.9C667.5,377.8 664,380.8 657,380.8L635.4,380.8ZM635.4,359.3C632.9,359.3 631.7,360.1 631.7,361.7L631.7,371.9C631.7,373.5 632.9,374.3 635.4,374.3L657,374.3C659.5,374.3 660.7,373.5 660.7,371.9L660.7,361.7C660.7,360.1 659.5,359.3 657,359.3L635.4,359.3Z" style="fill:rgb(0,159,227);fill-rule:nonzero;"/>
                        <path d="M715.5,363.5L715.5,373.8C715.5,378.3 712.7,380.6 707.1,380.6L682.8,380.6C677.2,380.6 674.4,378.3 674.4,373.7L674.4,359.4C674.4,354.9 677.2,352.6 682.9,352.6L714.9,352.6L714.9,359.1L682.9,359.1C681.8,359.1 681.3,359.6 681.3,360.5L681.3,372.7C681.3,373.6 681.8,374.1 682.9,374.1L707.2,374.1C708.2,374.1 708.8,373.7 708.8,372.8L708.8,363.5L715.5,363.5Z" style="fill:rgb(0,159,227);fill-rule:nonzero;"/>
                        <rect x="722.4" y="352.7" width="6.9" height="28" style="fill:rgb(0,159,227);fill-rule:nonzero;"/>
                        <path d="M776.5,374.2L776.5,380.7L744.5,380.7C738.9,380.7 736.1,378.4 736.1,373.8L736.1,359.5C736.1,355 738.9,352.7 744.5,352.7L776.4,352.7L776.4,359.2L744.5,359.2C743.5,359.2 742.9,359.7 742.9,360.6L742.9,372.8C742.9,373.7 743.4,374.2 744.5,374.2L776.5,374.2Z" style="fill:rgb(0,159,227);fill-rule:nonzero;"/>
                    </g>
                </g>
            </g>
        </g>
    </g>
    <defs>
        <linearGradient id="_Linear1" x1="0" y1="0" x2="1" y2="0" gradientUnits="userSpaceOnUse" gradientTransform="matrix(6.69025e-15,-109.26,109.26,6.69025e-15,356.601,325.591)"><stop offset="0" style="stop-color:rgb(216,216,218);stop-opacity:1"/><stop offset="1" style="stop-color:rgb(135,135,138);stop-opacity:1"/><stop offset="1" style="stop-color:rgb(136,135,138);stop-opacity:1"/></linearGradient>
        <linearGradient id="_Linear3" x1="0" y1="0" x2="1" y2="0" gradientUnits="userSpaceOnUse" gradientTransform="matrix(6.68989e-15,109.254,-109.254,6.68989e-15,356.596,232.899)"><stop offset="0" style="stop-color:rgb(136,135,138);stop-opacity:1"/><stop offset="1" style="stop-color:rgb(216,216,218);stop-opacity:1"/></linearGradient>
        <linearGradient id="_Linear4" x1="0" y1="0" x2="1" y2="0" gradientUnits="userSpaceOnUse" gradientTransform="matrix(6.69025e-15,-109.26,109.26,6.69025e-15,457.103,325.591)"><stop offset="0" style="stop-color:rgb(216,216,218);stop-opacity:1"/><stop offset="1" style="stop-color:rgb(135,135,138);stop-opacity:1"/><stop offset="1" style="stop-color:rgb(136,135,138);stop-opacity:1"/></linearGradient>
        <linearGradient id="_Linear5" x1="0" y1="0" x2="1" y2="0" gradientUnits="userSpaceOnUse" gradientTransform="matrix(6.68989e-15,109.254,-109.254,6.68989e-15,457.099,232.899)"><stop offset="0" style="stop-color:rgb(136,135,138);stop-opacity:1"/><stop offset="1" style="stop-color:rgb(216,216,218);stop-opacity:1"/></linearGradient>
        <linearGradient id="_Linear6" x1="0" y1="0" x2="1" y2="0" gradientUnits="userSpaceOnUse" gradientTransform="matrix(6.69025e-15,-109.26,109.26,6.69025e-15,565.06,325.591)"><stop offset="0" style="stop-color:rgb(216,216,218);stop-opacity:1"/><stop offset="1" style="stop-color:rgb(135,135,138);stop-opacity:1"/><stop offset="1" style="stop-color:rgb(136,135,138);stop-opacity:1"/></linearGradient>
        <linearGradient id="_Linear8" x1="0" y1="0" x2="1" y2="0" gradientUnits="userSpaceOnUse" gradientTransform="matrix(6.68989e-15,109.254,-109.254,6.68989e-15,565.06,232.899)"><stop offset="0" style="stop-color:rgb(136,135,138);stop-opacity:1"/><stop offset="1" style="stop-color:rgb(216,216,218);stop-opacity:1"/></linearGradient>
        <linearGradient id="_Linear9" x1="0" y1="0" x2="1" y2="0" gradientUnits="userSpaceOnUse" gradientTransform="matrix(6.69025e-15,-109.26,109.26,6.69025e-15,718.405,325.591)"><stop offset="0" style="stop-color:rgb(216,216,218);stop-opacity:1"/><stop offset="1" style="stop-color:rgb(135,135,138);stop-opacity:1"/><stop offset="1" style="stop-color:rgb(136,135,138);stop-opacity:1"/></linearGradient>
        <linearGradient id="_Linear11" x1="0" y1="0" x2="1" y2="0" gradientUnits="userSpaceOnUse" gradientTransform="matrix(6.68989e-15,109.254,-109.254,6.68989e-15,718.409,232.899)"><stop offset="0" style="stop-color:rgb(136,135,138);stop-opacity:1"/><stop offset="1" style="stop-color:rgb(216,216,218);stop-opacity:1"/></linearGradient>
        <linearGradient id="_Linear12" x1="0" y1="0" x2="1" y2="0" gradientUnits="userSpaceOnUse" gradientTransform="matrix(1.62022e-14,-264.602,264.602,1.62022e-14,214.2,391.396)"><stop offset="0" style="stop-color:rgb(0,159,227);stop-opacity:1"/><stop offset="0" style="stop-color:rgb(0,159,227);stop-opacity:1"/><stop offset="1" style="stop-color:rgb(40,38,91);stop-opacity:1"/><stop offset="1" style="stop-color:rgb(40,38,91);stop-opacity:1"/></linearGradient>
        <linearGradient id="_Linear14" x1="0" y1="0" x2="1" y2="0" gradientUnits="userSpaceOnUse" gradientTransform="matrix(1.62014e-14,-264.588,264.588,1.62014e-14,214.164,391.384)"><stop offset="0" style="stop-color:rgb(0,159,227);stop-opacity:1"/><stop offset="0" style="stop-color:rgb(0,159,227);stop-opacity:1"/><stop offset="1" style="stop-color:rgb(40,38,91);stop-opacity:1"/><stop offset="1" style="stop-color:rgb(40,38,91);stop-opacity:1"/></linearGradient>
        <linearGradient id="_Linear15" x1="0" y1="0" x2="1" y2="0" gradientUnits="userSpaceOnUse" gradientTransform="matrix(1.62023e-14,-264.603,264.603,1.62023e-14,113.399,391.396)"><stop offset="0" style="stop-color:rgb(0,159,227);stop-opacity:1"/><stop offset="0" style="stop-color:rgb(0,159,227);stop-opacity:1"/><stop offset="1" style="stop-color:rgb(40,38,91);stop-opacity:1"/><stop offset="1" style="stop-color:rgb(40,38,91);stop-opacity:1"/></linearGradient>
        <linearGradient id="_Linear17" x1="0" y1="0" x2="1" y2="0" gradientUnits="userSpaceOnUse" gradientTransform="matrix(1.62014e-14,-264.588,264.588,1.62014e-14,113.366,391.384)"><stop offset="0" style="stop-color:rgb(0,159,227);stop-opacity:1"/><stop offset="0" style="stop-color:rgb(0,159,227);stop-opacity:1"/><stop offset="1" style="stop-color:rgb(40,38,91);stop-opacity:1"/><stop offset="1" style="stop-color:rgb(40,38,91);stop-opacity:1"/></linearGradient>
        <linearGradient id="_Linear18" x1="0" y1="0" x2="1" y2="0" gradientUnits="userSpaceOnUse" gradientTransform="matrix(1.62022e-14,-264.603,264.603,1.62022e-14,162.864,391.395)"><stop offset="0" style="stop-color:rgb(0,159,227);stop-opacity:1"/><stop offset="0" style="stop-color:rgb(0,159,227);stop-opacity:1"/><stop offset="1" style="stop-color:rgb(40,38,91);stop-opacity:1"/><stop offset="1" style="stop-color:rgb(40,38,91);stop-opacity:1"/></linearGradient>
        <linearGradient id="_Linear20" x1="0" y1="0" x2="1" y2="0" gradientUnits="userSpaceOnUse" gradientTransform="matrix(1.62014e-14,-264.588,264.588,1.62014e-14,162.834,391.384)"><stop offset="0" style="stop-color:rgb(0,159,227);stop-opacity:1"/><stop offset="0" style="stop-color:rgb(0,159,227);stop-opacity:1"/><stop offset="1" style="stop-color:rgb(40,38,91);stop-opacity:1"/><stop offset="1" style="stop-color:rgb(40,38,91);stop-opacity:1"/></linearGradient>
    </defs>
</svg>
