<?xml version="1.0" encoding="utf-8"?>
<!-- Generator: Adobe Illustrator 25.1.0, SVG Export Plug-In . SVG Version: 6.00 Build 0)  -->
<svg version="1.1" id="cmyk__x2013__auf_schwarz" xmlns="http://www.w3.org/2000/svg" xmlns:xlink="http://www.w3.org/1999/xlink"
	 x="0px" y="0px" viewBox="0 0 841.9 595.3" style="enable-background:new 0 0 841.9 595.3;" xml:space="preserve">
<style type="text/css">
	.st0{clip-path:url(#SVGID_5_);fill:url(#SVGID_6_);}
	.st1{clip-path:url(#SVGID_13_);fill:url(#SVGID_14_);}
	.st2{clip-path:url(#SVGID_21_);fill:url(#SVGID_22_);}
	.st3{clip-path:url(#SVGID_29_);fill:url(#SVGID_30_);}
	.st4{clip-path:url(#SVGID_37_);fill:url(#SVGID_38_);}
	.st5{clip-path:url(#SVGID_45_);fill:url(#SVGID_46_);}
	.st6{clip-path:url(#SVGID_53_);fill:url(#SVGID_54_);}
	.st7{fill:#009FE3;}
</style>
<g>
	<g>
		
			<image style="overflow:visible;opacity:0.5;" width="513" height="361" xlink:href="86E8620FBC8ADF0E.png"  transform="matrix(0.24 0 0 0.24 295.4192 236.3792)">
		</image>
		<g>
			<g>
				<defs>
					<path id="SVGID_1_" d="M322.1,237.8c-16.7,0-25.1,6.7-25.1,20.2v13.1c0,11.8,8.3,17.7,25,17.7h69.2c3.1,0,4.7,1,4.7,3v6.7
						c0,1.9-1.6,2.9-4.7,2.9h-91.5v19.3h91.5c16.6,0,25-6.7,25-20.1v-11.3c0-13.2-8.3-19.8-24.9-19.8h-69.2c-3.2,0-4.8-1-4.8-3v-6.4
						c0-2,1.6-3,4.8-3h91.5v-19.3H322.1z"/>
				</defs>
				<clipPath id="SVGID_2_">
					<use xlink:href="#SVGID_1_"  style="overflow:visible;"/>
				</clipPath>
			</g>
			<g>
				<defs>
					<path id="SVGID_3_" d="M322.1,237.8c-16.7,0-25.1,6.7-25.1,20.2v13.1c0,11.8,8.3,17.7,25,17.7h69.2c3.1,0,4.7,1,4.7,3v6.7
						c0,1.9-1.6,2.9-4.7,2.9h-91.5v19.3h91.5c16.6,0,25-6.7,25-20.1v-11.3c0-13.2-8.3-19.8-24.9-19.8h-69.2c-3.2,0-4.8-1-4.8-3v-6.4
						c0-2,1.6-3,4.8-3h91.5v-19.3H322.1z"/>
				</defs>
				<linearGradient id="SVGID_4_" gradientUnits="userSpaceOnUse" x1="356.601" y1="325.5906" x2="356.601" y2="216.3306">
					<stop  offset="0" style="stop-color:#D8D8DA"/>
					<stop  offset="0.9999" style="stop-color:#87878A"/>
					<stop  offset="1" style="stop-color:#88878A"/>
				</linearGradient>
				<use xlink:href="#SVGID_3_"  style="overflow:visible;fill:url(#SVGID_4_);"/>
				<clipPath id="SVGID_5_">
					<use xlink:href="#SVGID_3_"  style="overflow:visible;"/>
				</clipPath>
				
					<linearGradient id="SVGID_6_" gradientUnits="userSpaceOnUse" x1="0.4214" y1="599.1054" x2="-0.1616" y2="599.1054" gradientTransform="matrix(0 -187.4001 -187.4001 0 112629.0078 311.8696)">
					<stop  offset="0" style="stop-color:#88878A"/>
					<stop  offset="1" style="stop-color:#D8D8DA"/>
				</linearGradient>
				<rect x="297" y="237.8" class="st0" width="119.2" height="82.9"/>
			</g>
			<g>
				<defs>
					<path id="SVGID_7_" d="M322.1,237.8c-16.7,0-25.1,6.7-25.1,20.2v13.1c0,11.8,8.3,17.7,25,17.7h69.2c3.1,0,4.7,1,4.7,3v6.7
						c0,1.9-1.6,2.9-4.7,2.9h-91.5v19.3h91.5c16.6,0,25-6.7,25-20.1v-11.3c0-13.2-8.3-19.8-24.9-19.8h-69.2c-3.2,0-4.8-1-4.8-3v-6.4
						c0-2,1.6-3,4.8-3h91.5v-19.3H322.1z"/>
				</defs>
				<clipPath id="SVGID_8_">
					<use xlink:href="#SVGID_7_"  style="overflow:visible;"/>
				</clipPath>
			</g>
		</g>
	</g>
</g>
<g>
	<g>
		
			<image style="overflow:visible;opacity:0.5;" width="101" height="361" xlink:href="86E8620FBC8ADF12.png"  transform="matrix(0.24 0 0 0.24 445.4192 236.3792)">
		</image>
		<g>
			<g>
				<defs>
					<rect id="SVGID_9_" x="446.9" y="237.8" width="20.3" height="82.9"/>
				</defs>
				<clipPath id="SVGID_10_">
					<use xlink:href="#SVGID_9_"  style="overflow:visible;"/>
				</clipPath>
			</g>
			<g>
				<defs>
					<rect id="SVGID_11_" x="446.9" y="237.8" width="20.3" height="82.9"/>
				</defs>
				<linearGradient id="SVGID_12_" gradientUnits="userSpaceOnUse" x1="457.103" y1="325.5906" x2="457.103" y2="216.3306">
					<stop  offset="0" style="stop-color:#D8D8DA"/>
					<stop  offset="0.9999" style="stop-color:#87878A"/>
					<stop  offset="1" style="stop-color:#88878A"/>
				</linearGradient>
				<use xlink:href="#SVGID_11_"  style="overflow:visible;fill:url(#SVGID_12_);"/>
				<clipPath id="SVGID_13_">
					<use xlink:href="#SVGID_11_"  style="overflow:visible;"/>
				</clipPath>
				
					<linearGradient id="SVGID_14_" gradientUnits="userSpaceOnUse" x1="0.4214" y1="598.5691" x2="-0.1616" y2="598.5691" gradientTransform="matrix(0 -187.4001 -187.4001 0 112629.0078 311.8696)">
					<stop  offset="0" style="stop-color:#88878A"/>
					<stop  offset="1" style="stop-color:#D8D8DA"/>
				</linearGradient>
				<rect x="446.9" y="237.8" class="st1" width="20.3" height="82.9"/>
			</g>
			<g>
				<defs>
					<rect id="SVGID_15_" x="446.9" y="237.8" width="20.3" height="82.9"/>
				</defs>
				<clipPath id="SVGID_16_">
					<use xlink:href="#SVGID_15_"  style="overflow:visible;"/>
				</clipPath>
			</g>
		</g>
	</g>
</g>
<g>
	<g>
		
			<image style="overflow:visible;opacity:0.5;" width="550" height="361" xlink:href="86E8620FBC8ADF15.png"  transform="matrix(0.24 0 0 0.24 499.4192 236.3792)">
		</image>
		<g>
			<g>
				<defs>
					<path id="SVGID_17_" d="M521.3,257.1h76.6c7.2,0,10.9,2.4,10.9,7.1v30.2c0,4.7-3.6,7-10.9,7h-76.6V257.1z M501,237.8v82.9h96.9
						c20.8,0,31.2-8.8,31.2-26.3v-30.2c0-17.6-10.4-26.4-31.2-26.4H501z"/>
				</defs>
				<clipPath id="SVGID_18_">
					<use xlink:href="#SVGID_17_"  style="overflow:visible;"/>
				</clipPath>
			</g>
			<g>
				<defs>
					<path id="SVGID_19_" d="M521.3,257.1h76.6c7.2,0,10.9,2.4,10.9,7.1v30.2c0,4.7-3.6,7-10.9,7h-76.6V257.1z M501,237.8v82.9h96.9
						c20.8,0,31.2-8.8,31.2-26.3v-30.2c0-17.6-10.4-26.4-31.2-26.4H501z"/>
				</defs>
				<linearGradient id="SVGID_20_" gradientUnits="userSpaceOnUse" x1="565.0601" y1="325.5906" x2="565.0601" y2="216.3306">
					<stop  offset="0" style="stop-color:#D8D8DA"/>
					<stop  offset="0.9999" style="stop-color:#87878A"/>
					<stop  offset="1" style="stop-color:#88878A"/>
				</linearGradient>
				<use xlink:href="#SVGID_19_"  style="overflow:visible;fill:url(#SVGID_20_);"/>
				<clipPath id="SVGID_21_">
					<use xlink:href="#SVGID_19_"  style="overflow:visible;"/>
				</clipPath>
				
					<linearGradient id="SVGID_22_" gradientUnits="userSpaceOnUse" x1="0.4214" y1="597.993" x2="-0.1616" y2="597.993" gradientTransform="matrix(0 -187.4001 -187.4001 0 112629.0078 311.8696)">
					<stop  offset="0" style="stop-color:#88878A"/>
					<stop  offset="1" style="stop-color:#D8D8DA"/>
				</linearGradient>
				<rect x="501" y="237.8" class="st2" width="128.1" height="82.9"/>
			</g>
			<g>
				<defs>
					<path id="SVGID_23_" d="M521.3,257.1h76.6c7.2,0,10.9,2.4,10.9,7.1v30.2c0,4.7-3.6,7-10.9,7h-76.6V257.1z M501,237.8v82.9h96.9
						c20.8,0,31.2-8.8,31.2-26.3v-30.2c0-17.6-10.4-26.4-31.2-26.4H501z"/>
				</defs>
				<clipPath id="SVGID_24_">
					<use xlink:href="#SVGID_23_"  style="overflow:visible;"/>
				</clipPath>
			</g>
		</g>
	</g>
</g>
<g>
	<g>
		
			<image style="overflow:visible;opacity:0.5;" width="502" height="361" xlink:href="86E8620FBC8ADF16.png"  transform="matrix(0.24 0 0 0.24 658.5392 236.3792)">
		</image>
		<g>
			<g>
				<defs>
					<path id="SVGID_25_" d="M685.1,237.8c-16.7,0-25,6.7-25,20.2v42.4c0,13.5,8.3,20.3,25,20.3h91.5v-19.3h-91.5
						c-3.1,0-4.7-1.4-4.7-4.1v-8.5h95.2v-19.3h-95.2v-8.4c0-2.7,1.6-4,4.7-4h91.2v-19.3H685.1z"/>
				</defs>
				<clipPath id="SVGID_26_">
					<use xlink:href="#SVGID_25_"  style="overflow:visible;"/>
				</clipPath>
			</g>
			<g>
				<defs>
					<path id="SVGID_27_" d="M685.1,237.8c-16.7,0-25,6.7-25,20.2v42.4c0,13.5,8.3,20.3,25,20.3h91.5v-19.3h-91.5
						c-3.1,0-4.7-1.4-4.7-4.1v-8.5h95.2v-19.3h-95.2v-8.4c0-2.7,1.6-4,4.7-4h91.2v-19.3H685.1z"/>
				</defs>
				<linearGradient id="SVGID_28_" gradientUnits="userSpaceOnUse" x1="718.4054" y1="325.5906" x2="718.4054" y2="216.3306">
					<stop  offset="0" style="stop-color:#D8D8DA"/>
					<stop  offset="0.9999" style="stop-color:#87878A"/>
					<stop  offset="1" style="stop-color:#88878A"/>
				</linearGradient>
				<use xlink:href="#SVGID_27_"  style="overflow:visible;fill:url(#SVGID_28_);"/>
				<clipPath id="SVGID_29_">
					<use xlink:href="#SVGID_27_"  style="overflow:visible;"/>
				</clipPath>
				
					<linearGradient id="SVGID_30_" gradientUnits="userSpaceOnUse" x1="0.4214" y1="597.1747" x2="-0.1616" y2="597.1747" gradientTransform="matrix(0 -187.4001 -187.4001 0 112629.0078 311.8696)">
					<stop  offset="0" style="stop-color:#88878A"/>
					<stop  offset="1" style="stop-color:#D8D8DA"/>
				</linearGradient>
				<rect x="660.2" y="237.8" class="st3" width="116.5" height="82.9"/>
			</g>
			<g>
				<defs>
					<path id="SVGID_31_" d="M685.1,237.8c-16.7,0-25,6.7-25,20.2v42.4c0,13.5,8.3,20.3,25,20.3h91.5v-19.3h-91.5
						c-3.1,0-4.7-1.4-4.7-4.1v-8.5h95.2v-19.3h-95.2v-8.4c0-2.7,1.6-4,4.7-4h91.2v-19.3H685.1z"/>
				</defs>
				<clipPath id="SVGID_32_">
					<use xlink:href="#SVGID_31_"  style="overflow:visible;"/>
				</clipPath>
			</g>
		</g>
	</g>
</g>
<g>
	<g>
		
			<image style="overflow:visible;opacity:0.5;" width="442" height="966" xlink:href="86E8620FBC8ADF14.png"  transform="matrix(0.24 0 0 0.24 161.4992 186.6992)">
		</image>
		<g>
			<g>
				<defs>
					<polygon id="SVGID_33_" points="199.4,188.2 199.4,196.6 199.3,196.6 199.3,225.4 219.1,225.4 219.1,204 248.1,204 
						248.1,336.2 163.1,396.8 163.1,416.3 265.3,343.5 265.3,188.2 					"/>
				</defs>
				<clipPath id="SVGID_34_">
					<use xlink:href="#SVGID_33_"  style="overflow:visible;"/>
				</clipPath>
			</g>
			<g>
				<defs>
					<polygon id="SVGID_35_" points="199.4,188.2 199.4,196.6 199.3,196.6 199.3,225.4 219.1,225.4 219.1,204 248.1,204 
						248.1,336.2 163.1,396.8 163.1,416.3 265.3,343.5 265.3,188.2 					"/>
				</defs>
				<linearGradient id="SVGID_36_" gradientUnits="userSpaceOnUse" x1="214.2" y1="391.3957" x2="214.2" y2="126.7937">
					<stop  offset="3.437100e-04" style="stop-color:#009FE3"/>
					<stop  offset="0.9999" style="stop-color:#28265B"/>
					<stop  offset="1" style="stop-color:#28265B"/>
				</linearGradient>
				<use xlink:href="#SVGID_35_"  style="overflow:visible;fill:url(#SVGID_36_);"/>
				<clipPath id="SVGID_37_">
					<use xlink:href="#SVGID_35_"  style="overflow:visible;"/>
				</clipPath>
				
					<linearGradient id="SVGID_38_" gradientUnits="userSpaceOnUse" x1="0.6611" y1="597.191" x2="1.2441" y2="597.191" gradientTransform="matrix(0 -453.8394 -453.8394 0 271242.9688 691.4171)">
					<stop  offset="3.437100e-04" style="stop-color:#009FE3"/>
					<stop  offset="0.9999" style="stop-color:#28265B"/>
					<stop  offset="1" style="stop-color:#28265B"/>
				</linearGradient>
				<rect x="163.1" y="188.2" class="st4" width="102.2" height="228.1"/>
			</g>
			<g>
				<defs>
					<polygon id="SVGID_39_" points="199.4,188.2 199.4,196.6 199.3,196.6 199.3,225.4 219.1,225.4 219.1,204 248.1,204 
						248.1,336.2 163.1,396.8 163.1,416.3 265.3,343.5 265.3,188.2 					"/>
				</defs>
				<clipPath id="SVGID_40_">
					<use xlink:href="#SVGID_39_"  style="overflow:visible;"/>
				</clipPath>
			</g>
		</g>
	</g>
</g>
<g>
	<g>
		
			<image style="overflow:visible;opacity:0.5;" width="430" height="865" xlink:href="86E8620FBC8ADF13.png"  transform="matrix(0.24 0 0 0.24 62.1392 186.6992)">
		</image>
		<g>
			<g>
				<defs>
					<polygon id="SVGID_41_" points="126.3,333.1 106.6,333.1 106.6,354.9 80.9,334.8 80.9,204 115.7,204 163.1,204 163.1,188.2 
						118.1,188.2 63.7,188.2 63.7,341.9 126.4,392.1 126.4,372.5 126.3,372.4 					"/>
				</defs>
				<clipPath id="SVGID_42_">
					<use xlink:href="#SVGID_41_"  style="overflow:visible;"/>
				</clipPath>
			</g>
			<g>
				<defs>
					<polygon id="SVGID_43_" points="126.3,333.1 106.6,333.1 106.6,354.9 80.9,334.8 80.9,204 115.7,204 163.1,204 163.1,188.2 
						118.1,188.2 63.7,188.2 63.7,341.9 126.4,392.1 126.4,372.5 126.3,372.4 					"/>
				</defs>
				<linearGradient id="SVGID_44_" gradientUnits="userSpaceOnUse" x1="113.3988" y1="391.3957" x2="113.3988" y2="126.7927">
					<stop  offset="3.437100e-04" style="stop-color:#009FE3"/>
					<stop  offset="0.9999" style="stop-color:#28265B"/>
					<stop  offset="1" style="stop-color:#28265B"/>
				</linearGradient>
				<use xlink:href="#SVGID_43_"  style="overflow:visible;fill:url(#SVGID_44_);"/>
				<clipPath id="SVGID_45_">
					<use xlink:href="#SVGID_43_"  style="overflow:visible;"/>
				</clipPath>
				
					<linearGradient id="SVGID_46_" gradientUnits="userSpaceOnUse" x1="0.6611" y1="597.4131" x2="1.2441" y2="597.4131" gradientTransform="matrix(0 -453.8394 -453.8394 0 271242.9688 691.4171)">
					<stop  offset="3.437100e-04" style="stop-color:#009FE3"/>
					<stop  offset="0.9999" style="stop-color:#28265B"/>
					<stop  offset="1" style="stop-color:#28265B"/>
				</linearGradient>
				<rect x="63.7" y="188.2" class="st5" width="99.4" height="203.9"/>
			</g>
			<g>
				<defs>
					<polygon id="SVGID_47_" points="126.3,333.1 106.6,333.1 106.6,354.9 80.9,334.8 80.9,204 115.7,204 163.1,204 163.1,188.2 
						118.1,188.2 63.7,188.2 63.7,341.9 126.4,392.1 126.4,372.5 126.3,372.4 					"/>
				</defs>
				<clipPath id="SVGID_48_">
					<use xlink:href="#SVGID_47_"  style="overflow:visible;"/>
				</clipPath>
			</g>
		</g>
	</g>
</g>
<g>
	<g>
		
			<image style="overflow:visible;opacity:0.5;" width="485" height="361" xlink:href="86E8620FBC8ADF1D.png"  transform="matrix(0.24 0 0 0.24 105.0992 236.3792)">
		</image>
		<g>
			<g>
				<defs>
					<path id="SVGID_49_" d="M199.3,237.8v63.6h-1c-2.2,0-4.4-0.6-6.4-1.9c-2.1-1.2-3.8-2.7-5.3-4.4L152.1,249
						c-3.5-3.9-7.1-6.7-10.8-8.5c-3.8-1.8-8.4-2.7-13.9-2.7h-20.7v82.9h19.7v-63.6h1c2.2,0,4.4,0.6,6.5,1.8c2.1,1.2,3.9,2.7,5.3,4.4
						l33.6,45.7c3.4,4.1,7.1,7,11,8.9c4,1.9,8.8,2.8,14.6,2.8h20.8v-82.9H199.3z"/>
				</defs>
				<clipPath id="SVGID_50_">
					<use xlink:href="#SVGID_49_"  style="overflow:visible;"/>
				</clipPath>
			</g>
			<g>
				<defs>
					<path id="SVGID_51_" d="M199.3,237.8v63.6h-1c-2.2,0-4.4-0.6-6.4-1.9c-2.1-1.2-3.8-2.7-5.3-4.4L152.1,249
						c-3.5-3.9-7.1-6.7-10.8-8.5c-3.8-1.8-8.4-2.7-13.9-2.7h-20.7v82.9h19.7v-63.6h1c2.2,0,4.4,0.6,6.5,1.8c2.1,1.2,3.9,2.7,5.3,4.4
						l33.6,45.7c3.4,4.1,7.1,7,11,8.9c4,1.9,8.8,2.8,14.6,2.8h20.8v-82.9H199.3z"/>
				</defs>
				<linearGradient id="SVGID_52_" gradientUnits="userSpaceOnUse" x1="162.8638" y1="391.3954" x2="162.8638" y2="126.7928">
					<stop  offset="3.437100e-04" style="stop-color:#009FE3"/>
					<stop  offset="0.9999" style="stop-color:#28265B"/>
					<stop  offset="1" style="stop-color:#28265B"/>
				</linearGradient>
				<use xlink:href="#SVGID_51_"  style="overflow:visible;fill:url(#SVGID_52_);"/>
				<clipPath id="SVGID_53_">
					<use xlink:href="#SVGID_51_"  style="overflow:visible;"/>
				</clipPath>
				
					<linearGradient id="SVGID_54_" gradientUnits="userSpaceOnUse" x1="0.6611" y1="597.3041" x2="1.2441" y2="597.3041" gradientTransform="matrix(0 -453.8394 -453.8394 0 271242.9688 691.4171)">
					<stop  offset="3.437100e-04" style="stop-color:#009FE3"/>
					<stop  offset="0.9999" style="stop-color:#28265B"/>
					<stop  offset="1" style="stop-color:#28265B"/>
				</linearGradient>
				<rect x="106.6" y="237.8" class="st6" width="112.5" height="82.9"/>
			</g>
			<g>
				<defs>
					<path id="SVGID_55_" d="M199.3,237.8v63.6h-1c-2.2,0-4.4-0.6-6.4-1.9c-2.1-1.2-3.8-2.7-5.3-4.4L152.1,249
						c-3.5-3.9-7.1-6.7-10.8-8.5c-3.8-1.8-8.4-2.7-13.9-2.7h-20.7v82.9h19.7v-63.6h1c2.2,0,4.4,0.6,6.5,1.8c2.1,1.2,3.9,2.7,5.3,4.4
						l33.6,45.7c3.4,4.1,7.1,7,11,8.9c4,1.9,8.8,2.8,14.6,2.8h20.8v-82.9H199.3z"/>
				</defs>
				<clipPath id="SVGID_56_">
					<use xlink:href="#SVGID_55_"  style="overflow:visible;"/>
				</clipPath>
			</g>
		</g>
	</g>
</g>
<g>
	<g>
		
			<image style="overflow:visible;opacity:0.5;" width="2018" height="133" xlink:href="86E8620FBC8ADF1E.png"  transform="matrix(0.24 0 0 0.24 294.4592 351.0992)">
		</image>
		<g>
			<g>
				<path class="st7" d="M329.7,375.2H307l-3.1,5.5H296l14.7-25.6c0.2-0.4,0.4-0.7,0.6-1c0.2-0.3,0.5-0.5,0.8-0.7
					c0.3-0.2,0.7-0.3,1.1-0.5c0.4-0.1,0.9-0.2,1.6-0.2h7.1c1.9,0,3.4,0.8,4.3,2.3l14.6,25.7h-7.9L329.7,375.2z M310.3,369h16
					l-4.9-8.5c-0.3-0.5-0.5-0.8-0.9-1c-0.3-0.2-0.6-0.3-1-0.3H317c-0.7,0-1.4,0.4-1.9,1.3L310.3,369z"/>
				<path class="st7" d="M337,352.8h39.3v6.5h-16.1v21.5h-6.9v-21.5H337V352.8z"/>
				<path class="st7" d="M383,352.7h39.3v6.5h-16.1v21.5h-6.9v-21.5H383V352.7z"/>
				<path class="st7" d="M452,375.2h-22.7l-3.1,5.5h-7.9l14.7-25.6c0.2-0.4,0.4-0.7,0.6-1c0.2-0.3,0.5-0.5,0.8-0.7
					c0.3-0.2,0.7-0.3,1.1-0.5c0.4-0.1,0.9-0.2,1.6-0.2h7.1c1.9,0,3.4,0.8,4.3,2.3l14.6,25.7h-7.9L452,375.2z M432.6,369h16l-4.9-8.5
					c-0.3-0.5-0.5-0.8-0.9-1c-0.3-0.2-0.6-0.3-1-0.3h-2.7c-0.7,0-1.4,0.4-1.9,1.3L432.6,369z"/>
				<path class="st7" d="M507.1,374.2v6.5h-32c-5.6,0-8.4-2.3-8.4-6.9v-14.3c0-4.5,2.8-6.8,8.4-6.8H507v6.5h-31.9
					c-1,0-1.6,0.5-1.6,1.4v12.2c0,0.9,0.5,1.4,1.6,1.4H507.1z"/>
				<path class="st7" d="M520.7,352.8v10.3h12.6l10.4-10.3h9.5l-14,13l15,15h-9.5l-11-11.3h-13v11.3h-6.9v-28H520.7z"/>
				<path class="st7" d="M588.2,380.7c-5.6,0-8.4-2.3-8.4-6.8v-21.2h6.9v20.2c0,0.9,0.5,1.3,1.6,1.3h30.5v6.5H588.2z"/>
				<path class="st7" d="M635.4,380.8c-7,0-10.5-3-10.5-8.9v-10.2c0-6,3.5-8.9,10.5-8.9H657c7,0,10.5,3,10.5,8.9v10.2
					c0,5.9-3.5,8.9-10.5,8.9H635.4z M635.4,359.3c-2.5,0-3.7,0.8-3.7,2.4v10.2c0,1.6,1.2,2.4,3.7,2.4H657c2.5,0,3.7-0.8,3.7-2.4
					v-10.2c0-1.6-1.2-2.4-3.7-2.4H635.4z"/>
				<path class="st7" d="M715.5,363.5v10.3c0,4.5-2.8,6.8-8.4,6.8h-24.3c-5.6,0-8.4-2.3-8.4-6.9v-14.3c0-4.5,2.8-6.8,8.5-6.8h32v6.5
					h-32c-1.1,0-1.6,0.5-1.6,1.4v12.2c0,0.9,0.5,1.4,1.6,1.4h24.3c1,0,1.6-0.4,1.6-1.3v-9.3H715.5z"/>
				<path class="st7" d="M722.4,352.7h6.9v28h-6.9V352.7z"/>
				<path class="st7" d="M776.5,374.2v6.5h-32c-5.6,0-8.4-2.3-8.4-6.9v-14.3c0-4.5,2.8-6.8,8.4-6.8h31.9v6.5h-31.9
					c-1,0-1.6,0.5-1.6,1.4v12.2c0,0.9,0.5,1.4,1.6,1.4H776.5z"/>
			</g>
		</g>
	</g>
</g>
<g>
</g>
</svg>
