<?xml version="1.0" encoding="utf-8"?>
<!-- Generator: Adobe Illustrator 27.7.0, SVG Export Plug-In . SVG Version: 6.00 Build 0)  -->
<svg version="1.1" id="Calque_1" xmlns="http://www.w3.org/2000/svg" xmlns:xlink="http://www.w3.org/1999/xlink" x="0px" y="0px"
	 viewBox="0 0 439.3 116.7" style="enable-background:new 0 0 439.3 116.7;" xml:space="preserve">
<style type="text/css">
	.st0{fill:none;}
	.st1{fill:#636569;}
	
		.st2{clip-path:url(#SVGID_00000088117386691351473790000002840261071948999860_);fill:url(#SVGID_00000120520735158925876410000018382631988992469181_);}
	
		.st3{clip-path:url(#SVGID_00000111874714670115788270000015148433328879979652_);fill:url(#SVGID_00000092449030731361234870000004132936533292530601_);}
	
		.st4{clip-path:url(#SVGID_00000026128247589251354320000011827729068036136364_);fill:url(#SVGID_00000005224671983373381500000008849884956079178931_);}
	
		.st5{clip-path:url(#SVGID_00000064317144816187738040000003208033898604839359_);fill:url(#SVGID_00000177451561699419636410000012405273006075918007_);}
	
		.st6{clip-path:url(#SVGID_00000160170459333728716350000004709705427453875377_);fill:url(#SVGID_00000157272906555937843220000002158425667911002755_);}
	
		.st7{clip-path:url(#SVGID_00000181085517483425726810000004255407881246886043_);fill:url(#SVGID_00000082355363613817764660000001064428779082414764_);}
	
		.st8{clip-path:url(#SVGID_00000044167766141288152890000012726521357329599880_);fill:url(#SVGID_00000114765944261283409660000012936886101471655578_);}
	
		.st9{clip-path:url(#SVGID_00000009554676731848774990000005848666486630580625_);fill:url(#SVGID_00000052094964093264749960000005678169632834803879_);}
	
		.st10{clip-path:url(#SVGID_00000095340648064186920810000009432976709320491158_);fill:url(#SVGID_00000133516355648290986630000016485095368377162117_);}
	
		.st11{clip-path:url(#SVGID_00000015352114862990831670000009489971292541268616_);fill:url(#SVGID_00000008116600081962453680000004456481347444202672_);}
	
		.st12{clip-path:url(#SVGID_00000042738505872870113730000011399085981135458716_);fill:url(#SVGID_00000126307657515018506550000012258193857622162329_);}
	
		.st13{clip-path:url(#SVGID_00000162327681556320721590000008989262626556985781_);fill:url(#SVGID_00000090288867403995008020000004761558534240960415_);}
	
		.st14{clip-path:url(#SVGID_00000087395571152420573630000001747959192936521908_);fill:url(#SVGID_00000049182870788437938730000006398323533738283153_);}
	
		.st15{clip-path:url(#SVGID_00000135669493157681194900000009179037507728539796_);fill:url(#SVGID_00000153705228536833483000000010451825388287003020_);}
	
		.st16{clip-path:url(#SVGID_00000181082356250622765010000006804363348217924009_);fill:url(#SVGID_00000146495939492024972110000006569649762436758972_);}
</style>
<g>
	<path class="st0" d="M269.7,58.7c-11.8,0-20,8.6-20,21.2c0,12.7,8.2,21.3,20,21.3c11.7,0,19.9-8.6,19.9-21.3
		C289.6,67.3,281.4,58.7,269.7,58.7z"/>
	<path class="st0" d="M111.4,112.4H96.8L71.4,47h14.8l18.2,51.5l18-51.5h14.1L111.4,112.4z M161.1,112.4h-14V47h14V112.4z"/>
	<polygon class="st1" points="104.4,98.5 86.2,47 71.4,47 96.8,112.4 111.4,112.4 136.5,47 122.4,47 	"/>
	<rect x="147.1" y="47" class="st1" width="14" height="65.4"/>
	<path class="st1" d="M225.5,93.5c0.1-23.7-34.7-17.2-34.7-29.3c0-4.7,4.1-6.5,9.6-6.5c5.8,0,13,2.2,18.8,5.8l5.2-10.5
		c-5.9-4.2-14.6-6.6-22.9-6.6c-12.5,0-24.1,5.7-24.1,18.9c-0.1,23.6,34.3,16.1,34.3,29.5c0,4.9-4.7,7-10.7,7
		c-7.1,0-16.2-3.1-21.9-8.1l-5,10.1c6.5,5.9,16.7,9.1,26.3,9.1h0.1C213.6,112.9,225.5,106.9,225.5,93.5z"/>
	<path class="st1" d="M303.1,79.7c0-19.8-13.9-33.2-34.1-33.2c-20.3,0-34.2,13.4-34.2,33.2c0,19.7,13.9,33.2,34.2,33.2l0,0
		C289.2,112.9,303.1,99.4,303.1,79.7z M269,101.1c-11.8,0-20-8.6-20-21.3c0-12.5,8.2-21.2,20-21.2c11.7,0,19.9,8.6,19.9,21.2
		C289,92.5,280.7,101.1,269,101.1z"/>
	<path class="st1" d="M18.9,66.8l-2.1-7.7l8,2.1h12.7c12.3,0,15.8,4.5,15.8,16v35.3h14.2V71.8c0-15.6-9.1-24.7-24.4-24.7
		c-11.1,0-17.5,0-24.1,0H4.8v65.4H19L18.9,66.8z"/>
</g>
<g>
	<g>
		<defs>
			<polygon id="SVGID_1_" points="333.5,78.7 344.2,92.2 373.3,57.8 			"/>
		</defs>
		<clipPath id="SVGID_00000121267535237949215350000003158952634111224711_">
			<use xlink:href="#SVGID_1_"  style="overflow:visible;"/>
		</clipPath>
		
			<linearGradient id="SVGID_00000150804919642821719220000001411015611614028441_" gradientUnits="userSpaceOnUse" x1="-199.8017" y1="354.2448" x2="-198.802" y2="354.2448" gradientTransform="matrix(23.0754 -6.8947 6.8947 23.0754 2500.9966 -9470.7695)">
			<stop  offset="0" style="stop-color:#35A8E0"/>
			<stop  offset="1" style="stop-color:#1D70B7"/>
		</linearGradient>
		
			<polygon style="clip-path:url(#SVGID_00000121267535237949215350000003158952634111224711_);fill:url(#SVGID_00000150804919642821719220000001411015611614028441_);" points="
			336.8,103.1 382.8,89.4 370.1,46.9 324.1,60.6 		"/>
	</g>
	<g>
		<defs>
			<polygon id="SVGID_00000045600265031069123720000012334080445243160754_" points="361.3,64.2 344.2,92.2 373.3,57.8 			"/>
		</defs>
		<clipPath id="SVGID_00000010300743842748590890000008421094516078289085_">
			<use xlink:href="#SVGID_00000045600265031069123720000012334080445243160754_"  style="overflow:visible;"/>
		</clipPath>
		
			<linearGradient id="SVGID_00000038407664051975643100000007766049268489751953_" gradientUnits="userSpaceOnUse" x1="-200.4085" y1="353.9676" x2="-199.4086" y2="353.9676" gradientTransform="matrix(15.7898 5.3029 -5.3029 15.7898 5392.3696 -4453.9688)">
			<stop  offset="0" style="stop-color:#35A8E0"/>
			<stop  offset="1" style="stop-color:#1D70B7"/>
		</linearGradient>
		
			<polygon style="clip-path:url(#SVGID_00000010300743842748590890000008421094516078289085_);fill:url(#SVGID_00000038407664051975643100000007766049268489751953_);" points="
			333.9,88.7 370.4,101 383.7,61.3 347.2,49 		"/>
	</g>
	<g>
		<defs>
			<polygon id="SVGID_00000124845113531515267540000009590988491744497811_" points="353.7,38.5 333.5,78.7 333.5,78.7 361.3,64.2 
				361.3,64.2 353.7,38.5 			"/>
		</defs>
		<clipPath id="SVGID_00000140705459047545076800000005257960811717995698_">
			<use xlink:href="#SVGID_00000124845113531515267540000009590988491744497811_"  style="overflow:visible;"/>
		</clipPath>
		
			<linearGradient id="SVGID_00000116940845157288901750000015604958222658659768_" gradientUnits="userSpaceOnUse" x1="-199.5681" y1="356.1035" x2="-198.5681" y2="356.1035" gradientTransform="matrix(-14.8566 -4.9895 4.9895 -14.8566 -4381.0815 4357.7646)">
			<stop  offset="0" style="stop-color:#35A8E0"/>
			<stop  offset="1" style="stop-color:#1D70B7"/>
		</linearGradient>
		
			<polygon style="clip-path:url(#SVGID_00000140705459047545076800000005257960811717995698_);fill:url(#SVGID_00000116940845157288901750000015604958222658659768_);" points="
			373.4,42.6 336.3,30.1 321.4,74.6 358.5,87 		"/>
	</g>
	<g>
		<defs>
			<polygon id="SVGID_00000097473219669387216100000009582652336283820932_" points="326,53 333.5,78.7 353.7,38.5 			"/>
		</defs>
		<clipPath id="SVGID_00000127757138343550763520000005389479798979378069_">
			<use xlink:href="#SVGID_00000097473219669387216100000009582652336283820932_"  style="overflow:visible;"/>
		</clipPath>
		
			<linearGradient id="SVGID_00000088815303207136623900000017784243581093275302_" gradientUnits="userSpaceOnUse" x1="-199.5802" y1="356.0424" x2="-198.5803" y2="356.0424" gradientTransform="matrix(-15.6612 -5.5042 5.5042 -15.6612 -4742.3682 4537.2324)">
			<stop  offset="0" style="stop-color:#35A8E0"/>
			<stop  offset="1" style="stop-color:#1D70B7"/>
		</linearGradient>
		
			<polygon style="clip-path:url(#SVGID_00000127757138343550763520000005389479798979378069_);fill:url(#SVGID_00000088815303207136623900000017784243581093275302_);" points="
			366.3,42.9 329,29.8 313.4,74.2 350.7,87.3 		"/>
	</g>
	<g>
		<defs>
			<polygon id="SVGID_00000176739198661487040120000010592806155896850351_" points="326,53 353.7,38.5 324.4,6 			"/>
		</defs>
		<clipPath id="SVGID_00000137848117516002921520000001572313120117943956_">
			<use xlink:href="#SVGID_00000176739198661487040120000010592806155896850351_"  style="overflow:visible;"/>
		</clipPath>
		
			<linearGradient id="SVGID_00000103983360963883765190000014665409165922974870_" gradientUnits="userSpaceOnUse" x1="-199.6527" y1="355.1338" x2="-198.6527" y2="355.1338" gradientTransform="matrix(-20.4104 -46.8608 46.8608 -20.4104 -20374.1953 -2069.7019)">
			<stop  offset="0" style="stop-color:#35A8E0"/>
			<stop  offset="1" style="stop-color:#1D70B7"/>
		</linearGradient>
		
			<polygon style="clip-path:url(#SVGID_00000137848117516002921520000001572313120117943956_);fill:url(#SVGID_00000103983360963883765190000014665409165922974870_);" points="
			370.9,45.5 349,-4.7 307.2,13.5 329.1,63.7 		"/>
	</g>
	<g>
		<defs>
			<polygon id="SVGID_00000178899362593688560830000012385968880872288173_" points="359.3,100.5 359.3,100.5 359.3,100.5 395.6,74 
				369.1,70.8 			"/>
		</defs>
		<clipPath id="SVGID_00000098927400643591574440000005135199090326139795_">
			<use xlink:href="#SVGID_00000178899362593688560830000012385968880872288173_"  style="overflow:visible;"/>
		</clipPath>
		
			<linearGradient id="SVGID_00000101098007179603386790000012610303711793704345_" gradientUnits="userSpaceOnUse" x1="-200.2132" y1="356.0124" x2="-199.2133" y2="356.0124" gradientTransform="matrix(-17.7317 4.3015 -4.3015 -17.7317 -1635.8083 7258.2544)">
			<stop  offset="0" style="stop-color:#35A8E0"/>
			<stop  offset="1" style="stop-color:#1D70B7"/>
		</linearGradient>
		
			<polygon style="clip-path:url(#SVGID_00000098927400643591574440000005135199090326139795_);fill:url(#SVGID_00000101098007179603386790000012610303711793704345_);" points="
			393.6,62.5 352.5,72.4 361.4,108.8 402.4,98.9 		"/>
	</g>
	<g>
		<defs>
			<polygon id="SVGID_00000016062563477196938040000008858429597722345659_" points="359.3,100.5 385.9,103.8 395.6,74 			"/>
		</defs>
		<clipPath id="SVGID_00000145756712119444415170000014782551185745390997_">
			<use xlink:href="#SVGID_00000016062563477196938040000008858429597722345659_"  style="overflow:visible;"/>
		</clipPath>
		
			<linearGradient id="SVGID_00000050627429154435574280000014806466878457478591_" gradientUnits="userSpaceOnUse" x1="-199.7973" y1="355.8103" x2="-198.7977" y2="355.8103" gradientTransform="matrix(-21.8335 -4.3486 4.3486 -21.8335 -5513.9771 6992.2378)">
			<stop  offset="0" style="stop-color:#35A8E0"/>
			<stop  offset="1" style="stop-color:#1D70B7"/>
		</linearGradient>
		
			<polygon style="clip-path:url(#SVGID_00000145756712119444415170000014782551185745390997_);fill:url(#SVGID_00000050627429154435574280000014806466878457478591_);" points="
			401.3,75.1 360.7,67.1 353.6,102.6 394.2,110.7 		"/>
	</g>
	<g>
		<defs>
			<polygon id="SVGID_00000162339042408128276740000018066174790079063988_" points="385.9,103.8 385.9,103.8 432.5,97.6 395.6,74 
							"/>
		</defs>
		<clipPath id="SVGID_00000128474965921418626790000001990055206317802422_">
			<use xlink:href="#SVGID_00000162339042408128276740000018066174790079063988_"  style="overflow:visible;"/>
		</clipPath>
		
			<linearGradient id="SVGID_00000029017216799913672590000001429235590236012690_" gradientUnits="userSpaceOnUse" x1="-199.8789" y1="355.4545" x2="-198.8792" y2="355.4545" gradientTransform="matrix(-38.4884 -7.8056 7.8056 -38.4884 -10037.5107 12213.8174)">
			<stop  offset="0" style="stop-color:#35A8E0"/>
			<stop  offset="1" style="stop-color:#1D70B7"/>
		</linearGradient>
		
			<polygon style="clip-path:url(#SVGID_00000128474965921418626790000001990055206317802422_);fill:url(#SVGID_00000029017216799913672590000001429235590236012690_);" points="
			438.3,75.2 387.7,64.9 380.1,102.6 430.7,112.8 		"/>
	</g>
	<g>
		<defs>
			<polygon id="SVGID_00000175296753771935041760000016832027163687596983_" points="330.4,107.8 344.2,92.2 339.3,86 			"/>
		</defs>
		<clipPath id="SVGID_00000042697446932982356460000006980246950841685950_">
			<use xlink:href="#SVGID_00000175296753771935041760000016832027163687596983_"  style="overflow:visible;"/>
		</clipPath>
		
			<linearGradient id="SVGID_00000150782907020324070290000002419077799417299850_" gradientUnits="userSpaceOnUse" x1="-200.8968" y1="352.8994" x2="-199.8968" y2="352.8994" gradientTransform="matrix(7.7013 2.5864 -2.5864 7.7013 2794.3203 -2102.281)">
			<stop  offset="0" style="stop-color:#35A8E0"/>
			<stop  offset="1" style="stop-color:#1D70B7"/>
		</linearGradient>
		
			<polygon style="clip-path:url(#SVGID_00000042697446932982356460000006980246950841685950_);fill:url(#SVGID_00000150782907020324070290000002419077799417299850_);" points="
			323.9,105.6 342.8,111.9 350.8,88.2 331.8,81.8 		"/>
	</g>
	<g>
		<defs>
			<polygon id="SVGID_00000093898397582703702880000015330168804409154968_" points="339.3,86 324.6,94.6 324.6,94.6 330.4,107.8 
				339.3,86 			"/>
		</defs>
		<clipPath id="SVGID_00000116197290844705894660000003227471011588223384_">
			<use xlink:href="#SVGID_00000093898397582703702880000015330168804409154968_"  style="overflow:visible;"/>
		</clipPath>
		
			<linearGradient id="SVGID_00000158715922454311861470000009219126762962665384_" gradientUnits="userSpaceOnUse" x1="-200.5805" y1="353.4274" x2="-199.5809" y2="353.4274" gradientTransform="matrix(10.6742 3.5849 -3.5849 10.6742 3732.6582 -2959.0715)">
			<stop  offset="0" style="stop-color:#35A8E0"/>
			<stop  offset="1" style="stop-color:#1D70B7"/>
		</linearGradient>
		
			<polygon style="clip-path:url(#SVGID_00000116197290844705894660000003227471011588223384_);fill:url(#SVGID_00000158715922454311861470000009219126762962665384_);" points="
			318,105.6 337.8,112.2 345.9,88.2 326.1,81.5 		"/>
	</g>
	<g>
		<defs>
			<polygon id="SVGID_00000046316129659593562670000005008410506028916616_" points="330.4,107.8 351.2,96 344.2,92.2 			"/>
		</defs>
		<clipPath id="SVGID_00000133508407118909003600000017614184661064688305_">
			<use xlink:href="#SVGID_00000046316129659593562670000005008410506028916616_"  style="overflow:visible;"/>
		</clipPath>
		
			<linearGradient id="SVGID_00000129183741249362830960000012077556495764384905_" gradientUnits="userSpaceOnUse" x1="-200.4478" y1="353.9436" x2="-199.4481" y2="353.9436" gradientTransform="matrix(15.0015 5.0381 -5.0381 15.0015 5124.0542 -4202.1367)">
			<stop  offset="0" style="stop-color:#35A8E0"/>
			<stop  offset="1" style="stop-color:#1D70B7"/>
		</linearGradient>
		
			<polygon style="clip-path:url(#SVGID_00000133508407118909003600000017614184661064688305_);fill:url(#SVGID_00000129183741249362830960000012077556495764384905_);" points="
			325.7,106.2 348.9,114 355.7,93.8 332.5,86 		"/>
	</g>
	<g>
		<defs>
			<polygon id="SVGID_00000062150816145171151950000016516655141913244329_" points="330.4,107.8 344.2,112 351.2,96 			"/>
		</defs>
		<clipPath id="SVGID_00000072978898170571077140000011445431983075193231_">
			<use xlink:href="#SVGID_00000062150816145171151950000016516655141913244329_"  style="overflow:visible;"/>
		</clipPath>
		
			<linearGradient id="SVGID_00000179609953130081493730000006984874515880792237_" gradientUnits="userSpaceOnUse" x1="-200.4415" y1="353.922" x2="-199.4416" y2="353.922" gradientTransform="matrix(15.0015 5.0381 -5.0381 15.0015 5122.7925 -4198.3867)">
			<stop  offset="0" style="stop-color:#35A8E0"/>
			<stop  offset="1" style="stop-color:#1D70B7"/>
		</linearGradient>
		
			<polygon style="clip-path:url(#SVGID_00000072978898170571077140000011445431983075193231_);fill:url(#SVGID_00000179609953130081493730000006984874515880792237_);" points="
			325.9,110.1 349.1,117.9 355.9,97.6 332.7,89.8 		"/>
	</g>
	<g>
		<defs>
			<polygon id="SVGID_00000012430657637805376350000006711646542716161169_" points="344.2,92.2 359.3,100.5 373.3,57.8 			"/>
		</defs>
		<clipPath id="SVGID_00000041294295912104667420000003718030275016885947_">
			<use xlink:href="#SVGID_00000012430657637805376350000006711646542716161169_"  style="overflow:visible;"/>
		</clipPath>
		
			<linearGradient id="SVGID_00000142887063402517518920000000830383583839848848_" gradientUnits="userSpaceOnUse" x1="-198.8872" y1="355.2704" x2="-197.8873" y2="355.2704" gradientTransform="matrix(-4.8822 -15.6407 15.6407 -4.8822 -6163.3047 -1279.1398)">
			<stop  offset="0" style="stop-color:#35A8E0"/>
			<stop  offset="1" style="stop-color:#1D70B7"/>
		</linearGradient>
		
			<polygon style="clip-path:url(#SVGID_00000041294295912104667420000003718030275016885947_);fill:url(#SVGID_00000142887063402517518920000000830383583839848848_);" points="
			385.5,96.7 370.8,49.5 332.1,61.6 346.8,108.8 		"/>
	</g>
	<g>
		<defs>
			<polygon id="SVGID_00000119089229366468052840000015865873904925297846_" points="344.2,92.2 344.2,92.2 369.1,70.8 369.1,70.7 
				373.3,57.8 			"/>
		</defs>
		<clipPath id="SVGID_00000166663632011664121380000005249215869407626628_">
			<use xlink:href="#SVGID_00000119089229366468052840000015865873904925297846_"  style="overflow:visible;"/>
		</clipPath>
		
			<linearGradient id="SVGID_00000061450119421134326070000018404366735109628861_" gradientUnits="userSpaceOnUse" x1="-200.3994" y1="353.9605" x2="-199.3995" y2="353.9605" gradientTransform="matrix(15.857 5.3255 -5.3255 15.857 5413.6602 -4473.1616)">
			<stop  offset="0" style="stop-color:#35A8E0"/>
			<stop  offset="1" style="stop-color:#1D70B7"/>
		</linearGradient>
		
			<polygon style="clip-path:url(#SVGID_00000166663632011664121380000005249215869407626628_);fill:url(#SVGID_00000061450119421134326070000018404366735109628861_);" points="
			333.9,88.7 370.4,101 383.7,61.3 347.2,49 		"/>
	</g>
	<g>
		<defs>
			<polygon id="SVGID_00000157295121144753364770000017048796229376947637_" points="344.2,92.2 369.1,70.8 373.3,57.8 			"/>
		</defs>
		<clipPath id="SVGID_00000124865626988496491470000005569046669826989208_">
			<use xlink:href="#SVGID_00000157295121144753364770000017048796229376947637_"  style="overflow:visible;"/>
		</clipPath>
		
			<linearGradient id="SVGID_00000164477004353046775740000003699120768022226049_" gradientUnits="userSpaceOnUse" x1="-199.6938" y1="354.7126" x2="-198.6941" y2="354.7126" gradientTransform="matrix(28.4663 -33.6087 33.6087 28.4663 -5890.5825 -16719.0547)">
			<stop  offset="0" style="stop-color:#35A8E0"/>
			<stop  offset="1" style="stop-color:#1D70B7"/>
		</linearGradient>
		
			<polygon style="clip-path:url(#SVGID_00000124865626988496491470000005569046669826989208_);fill:url(#SVGID_00000164477004353046775740000003699120768022226049_);" points="
			361.2,106.6 390.3,72.2 356.4,43.5 327.3,77.8 		"/>
	</g>
</g>
</svg>
