<?xml version="1.0" encoding="UTF-8" standalone="no"?>
<!DOCTYPE svg PUBLIC "-//W3C//DTD SVG 1.1//EN" "http://www.w3.org/Graphics/SVG/1.1/DTD/svg11.dtd">
<svg width="100%" height="100%" viewBox="0 0 440 117" version="1.1" xmlns="http://www.w3.org/2000/svg" xmlns:xlink="http://www.w3.org/1999/xlink" xml:space="preserve" xmlns:serif="http://www.serif.com/" style="fill-rule:evenodd;clip-rule:evenodd;stroke-linejoin:round;stroke-miterlimit:2;">
    <g>
        <path d="M269.7,58.7C257.9,58.7 249.7,67.3 249.7,79.9C249.7,92.6 257.9,101.2 269.7,101.2C281.4,101.2 289.6,92.6 289.6,79.9C289.6,67.3 281.4,58.7 269.7,58.7Z" style="fill:none;fill-rule:nonzero;"/>
        <path d="M111.4,112.4L96.8,112.4L71.4,47L86.2,47L104.4,98.5L122.4,47L136.5,47L111.4,112.4ZM161.1,112.4L147.1,112.4L147.1,47L161.1,47L161.1,112.4Z" style="fill:none;fill-rule:nonzero;"/>
        <path d="M104.4,98.5L86.2,47L71.4,47L96.8,112.4L111.4,112.4L136.5,47L122.4,47L104.4,98.5Z" style="fill:rgb(99,101,105);fill-rule:nonzero;"/>
        <rect x="147.1" y="47" width="14" height="65.4" style="fill:rgb(99,101,105);"/>
        <path d="M225.5,93.5C225.6,69.8 190.8,76.3 190.8,64.2C190.8,59.5 194.9,57.7 200.4,57.7C206.2,57.7 213.4,59.9 219.2,63.5L224.4,53C218.5,48.8 209.8,46.4 201.5,46.4C189,46.4 177.4,52.1 177.4,65.3C177.3,88.9 211.7,81.4 211.7,94.8C211.7,99.7 207,101.8 201,101.8C193.9,101.8 184.8,98.7 179.1,93.7L174.1,103.8C180.6,109.7 190.8,112.9 200.4,112.9L200.5,112.9C213.6,112.9 225.5,106.9 225.5,93.5Z" style="fill:rgb(99,101,105);fill-rule:nonzero;"/>
        <path d="M303.1,79.7C303.1,59.9 289.2,46.5 269,46.5C248.7,46.5 234.8,59.9 234.8,79.7C234.8,99.4 248.7,112.9 269,112.9C289.2,112.9 303.1,99.4 303.1,79.7ZM269,101.1C257.2,101.1 249,92.5 249,79.8C249,67.3 257.2,58.6 269,58.6C280.7,58.6 288.9,67.2 288.9,79.8C289,92.5 280.7,101.1 269,101.1Z" style="fill:rgb(99,101,105);fill-rule:nonzero;"/>
        <path d="M18.9,66.8L16.8,59.1L24.8,61.2L37.5,61.2C49.8,61.2 53.3,65.7 53.3,77.2L53.3,112.5L67.5,112.5L67.5,71.8C67.5,56.2 58.4,47.1 43.1,47.1L4.8,47.1L4.8,112.5L19,112.5L18.9,66.8Z" style="fill:rgb(99,101,105);fill-rule:nonzero;"/>
    </g>
    <g>
        <g>
            <clipPath id="_clip1">
                <path d="M333.5,78.7L344.2,92.2L373.3,57.8L333.5,78.7Z"/>
            </clipPath>
            <g clip-path="url(#_clip1)">
                <path d="M336.8,103.1L382.8,89.4L370.1,46.9L324.1,60.6L336.8,103.1Z" style="fill:url(#_Linear2);fill-rule:nonzero;"/>
            </g>
        </g>
        <g>
            <clipPath id="_clip3">
                <path d="M361.3,64.2L344.2,92.2L373.3,57.8L361.3,64.2Z"/>
            </clipPath>
            <g clip-path="url(#_clip3)">
                <path d="M333.9,88.7L370.4,101L383.7,61.3L347.2,49L333.9,88.7Z" style="fill:url(#_Linear4);fill-rule:nonzero;"/>
            </g>
        </g>
        <g>
            <clipPath id="_clip5">
                <path d="M353.7,38.5L333.5,78.7L361.3,64.2L353.7,38.5Z"/>
            </clipPath>
            <g clip-path="url(#_clip5)">
                <path d="M373.4,42.6L336.3,30.1L321.4,74.6L358.5,87L373.4,42.6Z" style="fill:url(#_Linear6);fill-rule:nonzero;"/>
            </g>
        </g>
        <g>
            <clipPath id="_clip7">
                <path d="M326,53L333.5,78.7L353.7,38.5L326,53Z"/>
            </clipPath>
            <g clip-path="url(#_clip7)">
                <path d="M366.3,42.9L329,29.8L313.4,74.2L350.7,87.3L366.3,42.9Z" style="fill:url(#_Linear8);fill-rule:nonzero;"/>
            </g>
        </g>
        <g>
            <clipPath id="_clip9">
                <path d="M326,53L353.7,38.5L324.4,6L326,53Z"/>
            </clipPath>
            <g clip-path="url(#_clip9)">
                <path d="M370.9,45.5L349,-4.7L307.2,13.5L329.1,63.7L370.9,45.5Z" style="fill:url(#_Linear10);fill-rule:nonzero;"/>
            </g>
        </g>
        <g>
            <clipPath id="_clip11">
                <path d="M359.3,100.5L395.6,74L369.1,70.8L359.3,100.5Z"/>
            </clipPath>
            <g clip-path="url(#_clip11)">
                <path d="M393.6,62.5L352.5,72.4L361.4,108.8L402.4,98.9L393.6,62.5Z" style="fill:url(#_Linear12);fill-rule:nonzero;"/>
            </g>
        </g>
        <g>
            <clipPath id="_clip13">
                <path d="M359.3,100.5L385.9,103.8L395.6,74L359.3,100.5Z"/>
            </clipPath>
            <g clip-path="url(#_clip13)">
                <path d="M401.3,75.1L360.7,67.1L353.6,102.6L394.2,110.7L401.3,75.1Z" style="fill:url(#_Linear14);fill-rule:nonzero;"/>
            </g>
        </g>
        <g>
            <clipPath id="_clip15">
                <path d="M385.9,103.8L432.5,97.6L395.6,74L385.9,103.8Z"/>
            </clipPath>
            <g clip-path="url(#_clip15)">
                <path d="M438.3,75.2L387.7,64.9L380.1,102.6L430.7,112.8L438.3,75.2Z" style="fill:url(#_Linear16);fill-rule:nonzero;"/>
            </g>
        </g>
        <g>
            <clipPath id="_clip17">
                <path d="M330.4,107.8L344.2,92.2L339.3,86L330.4,107.8Z"/>
            </clipPath>
            <g clip-path="url(#_clip17)">
                <path d="M323.9,105.6L342.8,111.9L350.8,88.2L331.8,81.8L323.9,105.6Z" style="fill:url(#_Linear18);fill-rule:nonzero;"/>
            </g>
        </g>
        <g>
            <clipPath id="_clip19">
                <path d="M339.3,86L324.6,94.6L330.4,107.8L339.3,86Z"/>
            </clipPath>
            <g clip-path="url(#_clip19)">
                <path d="M318,105.6L337.8,112.2L345.9,88.2L326.1,81.5L318,105.6Z" style="fill:url(#_Linear20);fill-rule:nonzero;"/>
            </g>
        </g>
        <g>
            <clipPath id="_clip21">
                <path d="M330.4,107.8L351.2,96L344.2,92.2L330.4,107.8Z"/>
            </clipPath>
            <g clip-path="url(#_clip21)">
                <path d="M325.7,106.2L348.9,114L355.7,93.8L332.5,86L325.7,106.2Z" style="fill:url(#_Linear22);fill-rule:nonzero;"/>
            </g>
        </g>
        <g>
            <clipPath id="_clip23">
                <path d="M330.4,107.8L344.2,112L351.2,96L330.4,107.8Z"/>
            </clipPath>
            <g clip-path="url(#_clip23)">
                <path d="M325.9,110.1L349.1,117.9L355.9,97.6L332.7,89.8L325.9,110.1Z" style="fill:url(#_Linear24);fill-rule:nonzero;"/>
            </g>
        </g>
        <g>
            <clipPath id="_clip25">
                <path d="M344.2,92.2L359.3,100.5L373.3,57.8L344.2,92.2Z"/>
            </clipPath>
            <g clip-path="url(#_clip25)">
                <path d="M385.5,96.7L370.8,49.5L332.1,61.6L346.8,108.8L385.5,96.7Z" style="fill:url(#_Linear26);fill-rule:nonzero;"/>
            </g>
        </g>
        <g>
            <clipPath id="_clip27">
                <path d="M344.2,92.2L369.1,70.8L369.1,70.7L373.3,57.8L344.2,92.2Z"/>
            </clipPath>
            <g clip-path="url(#_clip27)">
                <path d="M333.9,88.7L370.4,101L383.7,61.3L347.2,49L333.9,88.7Z" style="fill:url(#_Linear28);fill-rule:nonzero;"/>
            </g>
        </g>
        <g>
            <clipPath id="_clip29">
                <path d="M344.2,92.2L369.1,70.8L373.3,57.8L344.2,92.2Z"/>
            </clipPath>
            <g clip-path="url(#_clip29)">
                <path d="M361.2,106.6L390.3,72.2L356.4,43.5L327.3,77.8L361.2,106.6Z" style="fill:url(#_Linear30);fill-rule:nonzero;"/>
            </g>
        </g>
    </g>
    <defs>
        <linearGradient id="_Linear2" x1="0" y1="0" x2="1" y2="0" gradientUnits="userSpaceOnUse" gradientTransform="matrix(23.0685,-6.89263,6.89263,23.0685,332.904,81.1437)"><stop offset="0" style="stop-color:rgb(53,168,224);stop-opacity:1"/><stop offset="1" style="stop-color:rgb(29,112,183);stop-opacity:1"/></linearGradient>
        <linearGradient id="_Linear4" x1="0" y1="0" x2="1" y2="0" gradientUnits="userSpaceOnUse" gradientTransform="matrix(15.7882,5.30237,-5.30237,15.7882,350.905,72.3626)"><stop offset="0" style="stop-color:rgb(53,168,224);stop-opacity:1"/><stop offset="1" style="stop-color:rgb(29,112,183);stop-opacity:1"/></linearGradient>
        <linearGradient id="_Linear6" x1="0" y1="0" x2="1" y2="0" gradientUnits="userSpaceOnUse" gradientTransform="matrix(-14.8566,-4.9895,4.9895,-14.8566,360.6,63.0224)"><stop offset="0" style="stop-color:rgb(53,168,224);stop-opacity:1"/><stop offset="1" style="stop-color:rgb(29,112,183);stop-opacity:1"/></linearGradient>
        <linearGradient id="_Linear8" x1="0" y1="0" x2="1" y2="0" gradientUnits="userSpaceOnUse" gradientTransform="matrix(-15.6596,-5.50365,5.50365,-15.6596,343.026,59.7105)"><stop offset="0" style="stop-color:rgb(53,168,224);stop-opacity:1"/><stop offset="1" style="stop-color:rgb(29,112,183);stop-opacity:1"/></linearGradient>
        <linearGradient id="_Linear10" x1="0" y1="0" x2="1" y2="0" gradientUnits="userSpaceOnUse" gradientTransform="matrix(-20.4104,-46.8608,46.8608,-20.4104,342.65,37.7604)"><stop offset="0" style="stop-color:rgb(53,168,224);stop-opacity:1"/><stop offset="1" style="stop-color:rgb(29,112,183);stop-opacity:1"/></linearGradient>
        <linearGradient id="_Linear12" x1="0" y1="0" x2="1" y2="0" gradientUnits="userSpaceOnUse" gradientTransform="matrix(-17.7299,4.30107,-4.30107,-17.7299,382.925,84.3322)"><stop offset="0" style="stop-color:rgb(53,168,224);stop-opacity:1"/><stop offset="1" style="stop-color:rgb(29,112,183);stop-opacity:1"/></linearGradient>
        <linearGradient id="_Linear14" x1="0" y1="0" x2="1" y2="0" gradientUnits="userSpaceOnUse" gradientTransform="matrix(-21.8248,-4.34686,4.34686,-21.8248,395.574,92.4922)"><stop offset="0" style="stop-color:rgb(53,168,224);stop-opacity:1"/><stop offset="1" style="stop-color:rgb(29,112,183);stop-opacity:1"/></linearGradient>
        <linearGradient id="_Linear16" x1="0" y1="0" x2="1" y2="0" gradientUnits="userSpaceOnUse" gradientTransform="matrix(-38.4769,-7.80326,7.80326,-38.4769,430.044,93.1172)"><stop offset="0" style="stop-color:rgb(53,168,224);stop-opacity:1"/><stop offset="1" style="stop-color:rgb(29,112,183);stop-opacity:1"/></linearGradient>
        <linearGradient id="_Linear18" x1="0" y1="0" x2="1" y2="0" gradientUnits="userSpaceOnUse" gradientTransform="matrix(7.7013,2.5864,-2.5864,7.7013,334.415,95.9037)"><stop offset="0" style="stop-color:rgb(53,168,224);stop-opacity:1"/><stop offset="1" style="stop-color:rgb(29,112,183);stop-opacity:1"/></linearGradient>
        <linearGradient id="_Linear20" x1="0" y1="0" x2="1" y2="0" gradientUnits="userSpaceOnUse" gradientTransform="matrix(10.6699,3.58347,-3.58347,10.6699,324.62,94.4222)"><stop offset="0" style="stop-color:rgb(53,168,224);stop-opacity:1"/><stop offset="1" style="stop-color:rgb(29,112,183);stop-opacity:1"/></linearGradient>
        <linearGradient id="_Linear22" x1="0" y1="0" x2="1" y2="0" gradientUnits="userSpaceOnUse" gradientTransform="matrix(14.997,5.03659,-5.03659,14.997,333.833,97.6722)"><stop offset="0" style="stop-color:rgb(53,168,224);stop-opacity:1"/><stop offset="1" style="stop-color:rgb(29,112,183);stop-opacity:1"/></linearGradient>
        <linearGradient id="_Linear24" x1="0" y1="0" x2="1" y2="0" gradientUnits="userSpaceOnUse" gradientTransform="matrix(15,5.0376,-5.0376,15,332.775,101.13)"><stop offset="0" style="stop-color:rgb(53,168,224);stop-opacity:1"/><stop offset="1" style="stop-color:rgb(29,112,183);stop-opacity:1"/></linearGradient>
        <linearGradient id="_Linear26" x1="0" y1="0" x2="1" y2="0" gradientUnits="userSpaceOnUse" gradientTransform="matrix(-4.88171,-15.6391,15.6391,-4.88171,364.38,97.0941)"><stop offset="0" style="stop-color:rgb(53,168,224);stop-opacity:1"/><stop offset="1" style="stop-color:rgb(29,112,183);stop-opacity:1"/></linearGradient>
        <linearGradient id="_Linear28" x1="0" y1="0" x2="1" y2="0" gradientUnits="userSpaceOnUse" gradientTransform="matrix(15.8554,5.32497,-5.32497,15.8554,350.91,72.363)"><stop offset="0" style="stop-color:rgb(53,168,224);stop-opacity:1"/><stop offset="1" style="stop-color:rgb(29,112,183);stop-opacity:1"/></linearGradient>
        <linearGradient id="_Linear30" x1="0" y1="0" x2="1" y2="0" gradientUnits="userSpaceOnUse" gradientTransform="matrix(28.4578,-33.5986,33.5986,28.4578,346.303,89.7496)"><stop offset="0" style="stop-color:rgb(53,168,224);stop-opacity:1"/><stop offset="1" style="stop-color:rgb(29,112,183);stop-opacity:1"/></linearGradient>
    </defs>
</svg>
