<svg viewBox="0 0 1140 300" xmlns="http://www.w3.org/2000/svg">
<style>.a{fill:#fba310}.b{fill:#15223d}</style>
<path class="a" d="m2.9 296v-291.9h41.8v291.9"/>
<path class="a" d="m107.5 296v-252.6h-48.4v-39.3h138.6v39.3h-48.4v252.6"/>
<path class="b" d="m192.3 169.3v-41.8h123.4v41.8"/>
<path class="a" d="m488.7 88.6h-41.8v-9.4c0-9.6-2.2-17.8-6.8-24.8-4.5-7-12-10.5-22.7-10.5-5.8 0-10.4 1.1-14 3.3-3.5 2.2-6.4 4.9-8.6 8.2-2.1 3.6-3.6 7.6-4.5 12.1-0.79999 4.5-1.2 9.2-1.2 14.2 0 5.7 0.19998 10.5 0.60001 14.3 0.39999 3.8 1.4 7.3 3.1 10.3 1.6 3 4 5.6 7.2 7.7 3.1 2.2 7.4 4.4 12.9 6.6l32 12.7c9.3 3.6 16.8 7.7 22.5 12.5 5.8 4.8 10.3 10.3 13.5 16.6 3 6.6 5.1 14 6.2 22.4 1.1 8.3 1.6 17.8 1.6 28.5 0 12.3-1.2 23.7-3.7 34.2-2.4 10.5-6.4 19.5-11.9 26.9-5.7 7.6-13.2 13.6-22.5 18-9.3 4.4-20.6 6.6-34 6.6-10.1 0-19.6-1.8-28.3-5.4-8.8-3.5-16.3-8.4-22.6-14.7-6.3-6.3-11.2-13.6-14.9-22-3.7-8.3-5.6-17.4-5.6-27.2v-15.6h41.9v13.1c0 7.7 2.2 14.6 6.7 20.7 4.5 6.2 12.1 9.2 22.8 9.2 7.1 0 12.6-1 16.6-3 3.9-2.1 7-5 9.2-8.9 2.2-3.8 3.5-8.4 3.9-13.7 0.40002-5.3 0.60001-11.3 0.60001-17.8 0-7.7-0.29999-14-0.79999-18.9-0.60001-4.9-1.6-8.9-3.3-11.9-1.9-3-4.4-5.4-7.6-7.4-3.1-1.9-7.3-3.9-12.5-6.1l-29.9-12.3c-18.1-7.4-30.1-17.2-36.3-29.3-6.1-12.2-9.2-27.4-9.2-45.7 0-11 1.5-21.3 4.5-31.2 3-9.8 7.5-18.3 13.5-25.4 5.8-7.1 13.1-12.8 22-17 8.8-4.3 19.4-6.4 31.7-6.4 10.4 0 19.9 1.9 28.5 5.8 8.6 3.8 16.1 8.8 22.4 15.1 12.5 13.2 18.8 28.2 18.8 45.1"/>
<path class="b" d="m583 295.5v-291.9h40.2l63.1 175.9h0.90002v-175.9h41.8v291.9h-39.4l-63.9-175.5h-0.90002v175.5"/>
<path class="b" d="m755.2 72.5c0-11.8 2.1-22.2 6.2-31.2 4.1-9 9.5-16.5 16.4-22.6 6.5-5.7 14-10.1 22.3-13.1 8.4-3 16.8-4.5 25.2-4.5 8.5 0 16.9 1.5 25.3 4.5 8.3 3 15.9 7.4 22.7 13.1 6.6 6.1 11.9 13.6 16 22.6 4.1 9 6.2 19.4 6.2 31.2v154.1c0 12.3-2.1 22.8-6.2 31.6-4.1 8.7-9.4 16-16 21.7-6.8 6-14.4 10.5-22.7 13.6-8.4 3-16.8 4.5-25.3 4.5-8.4 0-16.8-1.5-25.2-4.5-8.3-3.1-15.8-7.6-22.3-13.6-6.9-5.7-12.3-13-16.4-21.7-4.1-8.8-6.2-19.3-6.2-31.6m41.8 0c0 10.1 2.9 17.6 8.5 22.4 5.6 4.7 12.2 7.1 19.8 7.1 7.7 0 14.3-2.4 19.9-7.1 5.6-4.8 8.4-12.3 8.4-22.4v-154.1c0-10.2-2.8-17.6-8.4-22.4-5.6-4.8-12.2-7.2-19.9-7.2-7.6 0-14.2 2.4-19.8 7.2-5.6 4.8-8.5 12.2-8.5 22.4"/>
<path class="b" d="m1138.2 3.6-43.4 291.9h-39.4l-32-189.4h-0.80005l-31.6 189.4h-39.3l-43.5-291.9h44.3l20.9 185.3h0.79993l32.8-185.3h32l34 189.8h0.90002l20.1-189.8"/>
</svg>
