<?xml version="1.0" encoding="UTF-8"?><svg id="Ebene_1" xmlns="http://www.w3.org/2000/svg" xmlns:xlink="http://www.w3.org/1999/xlink" viewBox="0 0 850.39 850.39"><defs><style>.cls-1{fill:#fff;}.cls-2{fill:#56baa2;}.cls-3{fill:url(#Unbenannter_Verlauf_44);}</style><radialGradient id="Unbenannter_Verlauf_44" cx="-407.53" cy="1364.25" fx="-407.53" fy="1364.25" r="1716.77" gradientTransform="matrix(1, 0, 0, 1, 0, 0)" gradientUnits="userSpaceOnUse"><stop offset=".38" stop-color="#39b184"/><stop offset=".67" stop-color="#008a89"/><stop offset=".88" stop-color="#0d596e"/><stop offset="1" stop-color="#144262"/></radialGradient></defs><rect class="cls-3" width="850.39" height="850.39" rx="60.93" ry="60.93"/><g><path class="cls-1" d="M99.13,640.24c-8.64,0-16.37-1.89-23.18-5.66-6.81-3.77-12.14-8.95-16-15.53-3.85-6.58-5.78-13.91-5.78-22.01s1.93-15.43,5.78-22.01c3.85-6.58,9.18-11.75,16-15.53,6.81-3.77,14.54-5.66,23.18-5.66,7.86,0,14.65,1.46,20.37,4.38,5.72,2.92,10.29,6.71,13.72,11.38,3.42,4.67,5.88,9.73,7.36,15.18h-18.1c-1.56-4.05-4.3-7.49-8.23-10.33-3.93-2.84-8.97-4.26-15.12-4.26-4.98,0-9.48,1.15-13.49,3.44-4.01,2.3-7.14,5.47-9.4,9.52-2.26,4.05-3.39,8.68-3.39,13.89s1.09,10.08,3.27,14.13c2.18,4.05,5.25,7.18,9.22,9.4,3.97,2.22,8.56,3.33,13.78,3.33,6.3,0,11.48-1.58,15.53-4.73,4.05-3.15,6.85-7.02,8.41-11.62h18.1c-1.63,5.76-4.24,11.11-7.82,16.05-3.58,4.94-8.25,8.95-14.01,12.03-5.76,3.07-12.49,4.61-20.2,4.61Z"/><path class="cls-1" d="M154.05,637.9v-81.73h61.3v16.35h-43.79v16.35h35.03v15.18h-35.03v17.51h43.79v16.35h-61.3Z"/><path class="cls-1" d="M230.41,637.9v-81.73h38.53c6.46,0,12.12,1.21,16.99,3.62,4.86,2.41,8.6,5.72,11.21,9.92,2.61,4.2,3.91,8.84,3.91,13.89,0,6.07-1.71,11.23-5.14,15.47-3.43,4.24-7.94,7.45-13.54,9.63l18.68,29.19h-19.85l-16.93-26.86h-16.35v26.86h-17.51Zm37.95-43.2c4.83,0,8.47-1.01,10.92-3.04,2.45-2.02,3.68-4.71,3.68-8.06s-1.23-6.03-3.68-8.06c-2.45-2.02-6.09-3.04-10.92-3.04h-20.43v22.18h20.43Z"/><path class="cls-1" d="M335.38,637.9v-65.39h-26.27v-16.35h70.06v16.35h-26.27v65.39h-17.51Z"/><path class="cls-1" d="M377.18,637.9l21.6-81.73h36.78l21.6,81.73h-18.1l-4.67-18.1h-34.44l-4.67,18.1h-18.1Zm26.85-34.44h26.27l-8.17-30.94h-9.92l-8.17,30.94Z"/><path class="cls-1" d="M472.81,637.9v-81.73h17.51v81.73h-17.51Z"/><path class="cls-1" d="M511.11,637.9v-81.73h22.77l32.11,57.8h1.17l-1.17-9.92v-47.87h17.51v81.73h-22.77l-32.11-57.8h-1.17l1.17,9.92v47.87h-17.51Z"/><path class="cls-2" d="M605.22,637.9v-81.73h17.51v81.73h-17.51Z"/><path class="cls-2" d="M664.3,637.9v-65.39h-26.27v-16.35h70.06v16.35h-26.27v65.39h-17.51Z"/><path class="cls-2" d="M747.08,637.9v-29.77l-30.94-51.96h19.27l19.62,33.86h1.63l19.62-33.86h19.27l-30.94,51.96v29.77h-17.51Z"/></g></svg>