<svg width="105" height="41" viewBox="0 0 105 41" fill="none" xmlns="http://www.w3.org/2000/svg">
<g clip-path="url(#clip0_179_127)">
<path d="M0.997848 26.121L0.0316162 27.7673L103.962 27.727L104.975 26.036L0.997848 26.121Z" fill="#808080"/>
<path d="M0.000305176 39.2889H0.919567V35.9382H2.40917L4.35282 39.2889H5.39957L3.32844 35.7771V35.719C4.29467 35.417 4.85159 34.7885 4.85159 33.6723C4.85159 32.2654 3.99048 31.4848 2.26827 31.4848H0.000305176V39.2889ZM0.919567 35.2179V32.2632H2.19893C3.39777 32.2632 3.87418 32.7172 3.87418 33.6813C3.87418 34.6923 3.43132 35.2179 2.21011 35.2179H0.919567ZM8.94466 39.394C9.8751 39.394 10.5394 39.1032 10.8883 38.8594V38.1973C10.3649 38.4411 9.85274 38.6268 9.08557 38.6268C7.85317 38.6268 7.16652 38.0698 7.11955 36.6271H11.0516V36.1261C11.0516 34.3344 10.3068 33.4151 8.72547 33.4151C7.39913 33.4151 6.21371 34.3098 6.21371 36.3229V36.4862C6.21371 38.289 7.13297 39.394 8.94689 39.394H8.94466ZM8.70086 34.1376C9.64249 34.1376 10.1211 34.661 10.1211 35.918H7.11955C7.21349 34.5581 7.98066 34.1376 8.70086 34.1376ZM14.4468 39.394C15.2252 39.394 15.7843 39.1502 16.1332 38.8124H16.1802L16.2853 39.2889H17.0301V30.9614H16.1355V33.7998C15.8223 33.6142 15.3325 33.4151 14.6235 33.4151C13.1339 33.4151 12.0536 34.3232 12.0536 36.4168V36.5689C12.0536 38.6984 13.2972 39.3962 14.449 39.3962L14.4468 39.394ZM14.7152 38.6626C13.6796 38.6626 12.9818 38.1503 12.9818 36.5332V36.3005C12.9818 34.7415 13.6439 34.1711 14.7376 34.1711C15.3303 34.1711 15.8671 34.3344 16.1332 34.5424V38.1727C15.8425 38.4053 15.3884 38.6603 14.713 38.6603L14.7152 38.6626Z" fill="#BD3523"/>
<path d="M23.333 39.2888H24.2411V32.2632H26.6253V31.4848H20.9487V32.2632H23.333V39.2888ZM30.1727 39.394C31.1031 39.394 31.7652 39.1032 32.1141 38.8594V38.1973C31.5907 38.4411 31.0785 38.6268 30.3113 38.6268C29.0789 38.6268 28.3923 38.0698 28.3453 36.6271H32.2773V36.1261C32.2773 34.3344 31.5325 33.4151 29.9512 33.4151C28.6249 33.4151 27.4395 34.3098 27.4395 36.3229V36.4862C27.4395 38.289 28.3587 39.394 30.1727 39.394ZM29.9289 34.1376C30.8705 34.1376 31.3491 34.661 31.3491 35.918H28.3476C28.4415 34.5581 29.2087 34.1376 29.9289 34.1376ZM35.0239 39.394C35.8023 39.394 36.2921 39.1144 36.5605 38.79H36.6187L36.7126 39.2911H37.4351V35.115C37.4351 33.9407 36.726 33.4173 35.4579 33.4173C34.7936 33.4173 34.2366 33.5225 33.7356 33.7305V34.3702C34.0957 34.2651 34.5498 34.1845 35.1089 34.1845C36.1445 34.1845 36.5404 34.4172 36.5404 35.3119V35.9158L34.9815 36.1014C33.8765 36.2289 33.2257 36.7635 33.2257 37.7768C33.2257 38.8594 33.9817 39.394 35.0284 39.394H35.0239ZM35.2454 38.6961C34.5811 38.6961 34.1517 38.383 34.1517 37.7544C34.1517 37.0923 34.5006 36.8016 35.2096 36.73L36.5359 36.5779V38.2756C36.2921 38.5194 35.7799 38.6939 35.2454 38.6939V38.6961ZM39.1081 39.2888H39.9915V34.6006C40.4568 34.3791 40.969 34.1823 41.4565 34.1823C42.2237 34.1823 42.5033 34.4731 42.5033 35.171V39.2888H43.3868V34.9853C43.3868 34.8444 43.3756 34.7415 43.3532 34.6006C43.899 34.3568 44.3888 34.1823 44.8428 34.1823C45.6234 34.1823 45.9008 34.4731 45.9008 35.171V39.2888H46.7731V34.9853C46.7731 33.8692 46.1915 33.4151 45.1917 33.4151C44.5409 33.4151 43.8654 33.6477 43.2369 34.0548H43.1899C42.9216 33.6253 42.4563 33.4151 41.8055 33.4151C41.1546 33.4151 40.5373 33.6835 40.0027 34.019H39.9558V33.518H39.1058V39.2866L39.1081 39.2888ZM48.4819 39.2888H49.3653V33.5314H48.4819V39.2888ZM48.4707 32.3683H49.3787V31.4378H48.4707V32.3683ZM51.0875 39.2888H51.971V34.6006C52.4474 34.3791 53.0536 34.1823 53.5993 34.1823C54.5186 34.1823 54.7624 34.4731 54.7624 35.171V39.2888H55.6458V34.9853C55.6458 33.8692 55.0979 33.4151 53.9706 33.4151C53.2616 33.4151 52.5168 33.6701 51.9822 34.019H51.9352V33.518H51.0853V39.2866L51.0875 39.2888ZM59.3341 41C61.3001 41 62.0896 40.2216 62.0896 39.2329C62.0896 38.1615 61.3113 37.8484 60.2645 37.8484H58.672C58.2873 37.8484 58.1017 37.7321 58.1017 37.4189C58.1017 37.2333 58.218 37.0923 58.3701 36.9537C58.672 37.0588 58.9986 37.1169 59.3587 37.1169C60.5687 37.1169 61.5215 36.4996 61.5215 35.2671V35.256C61.5215 34.8019 61.3717 34.453 61.1033 34.198H62.1388V33.5113H60.184C59.929 33.4531 59.6606 33.4173 59.3699 33.4173C58.1017 33.4173 57.1958 34.0794 57.1958 35.2783V35.3007C57.1958 35.9874 57.4754 36.4526 57.9183 36.7434C57.4754 37.07 57.2674 37.3361 57.2674 37.6963C57.2674 38.081 57.5224 38.3248 57.8489 38.4187V38.4769C57.2562 38.6737 56.7552 39.0339 56.7552 39.6512C56.7552 40.49 57.5805 41 59.3385 41H59.3341ZM59.3117 40.3021C58.171 40.3021 57.6834 40.0471 57.6834 39.5349C57.6834 39.0473 58.0212 38.79 58.4618 38.6402H60.1258C60.8818 38.6402 61.1614 38.8147 61.1614 39.3492C61.1614 39.9532 60.6738 40.3021 59.3117 40.3021ZM59.3587 36.4168C58.5915 36.4168 58.0793 36.0455 58.0793 35.2895V35.2313C58.0793 34.5111 58.5669 34.0906 59.3587 34.0906C60.137 34.0906 60.6268 34.4507 60.6268 35.2425V35.3007C60.6268 36.0455 60.1616 36.4168 59.3587 36.4168ZM68.0928 39.4298C69.9201 39.4298 70.7097 38.5216 70.7097 37.1617C70.7097 35.8465 69.976 35.3588 68.8264 34.9629L68.0592 34.7191C67.1758 34.4172 66.8962 34.0906 66.8962 33.3458C66.8962 32.6009 67.4307 32.1357 68.3858 32.1357C69.2469 32.1357 69.862 32.3571 70.316 32.5674V31.789C69.8866 31.5787 69.3386 31.3595 68.4193 31.3595C66.791 31.3595 65.9881 32.2207 65.9881 33.4307C65.9881 34.6162 66.6054 35.1754 67.6991 35.5355L68.4551 35.804C69.3967 36.1059 69.7814 36.4325 69.7814 37.2355C69.7814 38.0855 69.2581 38.6424 68.0592 38.6424C67.2339 38.6424 66.4667 38.4322 65.8718 38.1302V38.9086C66.3952 39.1994 67.14 39.432 68.0928 39.432V39.4298ZM74.503 39.394C75.4335 39.394 76.0977 39.1032 76.4467 38.8594V38.1973C75.9233 38.4411 75.4111 38.6268 74.6439 38.6268C73.4115 38.6268 72.7249 38.0698 72.6779 36.6271H76.6099V36.1261C76.6099 34.3344 75.8651 33.4151 74.2838 33.4151C72.9575 33.4151 71.7721 34.3098 71.7721 36.3229V36.4862C71.7721 38.289 72.6913 39.394 74.5052 39.394H74.503ZM74.2592 34.1376C75.2008 34.1376 75.6795 34.661 75.6795 35.918H72.6779C72.7718 34.5581 73.539 34.1376 74.2592 34.1376ZM77.9474 39.2911H78.8421V34.7549C79.2492 34.4641 79.8083 34.2539 80.3899 34.2539C80.4838 34.2539 80.6583 34.2651 80.8081 34.2897V33.4867C80.75 33.4755 80.5867 33.4643 80.4592 33.4643C79.8083 33.4643 79.1798 33.8021 78.8533 34.1734H78.7951V33.5225H77.9452V39.2911H77.9474Z" fill="#808080"/>
<path d="M83.6554 39.2889H84.5389L86.6794 33.5202H85.8071L84.143 38.1615H84.096L82.4789 33.5202H81.5127L83.6532 39.2889H83.6554ZM87.8424 39.2889H88.7259V33.5314H87.8424V39.2889ZM87.8312 32.3683H88.7393V31.4378H87.8312V32.3683ZM92.7518 39.394C93.5548 39.394 94.067 39.1614 94.4383 38.9399V38.2197C94.1475 38.383 93.6353 38.6268 92.857 38.6268C91.6246 38.6268 91.0073 37.9647 91.0073 36.4862V36.2066C91.0073 34.8802 91.6939 34.1711 92.7407 34.1711C93.4967 34.1711 93.8679 34.3121 94.3801 34.5424V33.7976C93.9954 33.5538 93.5436 33.4129 92.7876 33.4129C91.298 33.4129 90.088 34.2964 90.088 36.3453V36.5197C90.088 38.4165 91.099 39.3918 92.7518 39.3918V39.394ZM98.0572 39.394C98.9876 39.394 99.6497 39.1032 100.001 38.8594V38.1973C99.4774 38.4411 98.9653 38.6268 98.1981 38.6268C96.9657 38.6268 96.279 38.0698 96.2321 36.6271H100.164V36.1261C100.164 34.3344 99.4193 33.4151 97.838 33.4151C96.5116 33.4151 95.3262 34.3098 95.3262 36.3229V36.4862C95.3262 38.289 96.2455 39.394 98.0594 39.394H98.0572ZM97.8134 34.1376C98.755 34.1376 99.2337 34.661 99.2337 35.9181H96.2321C96.326 34.5581 97.0932 34.1376 97.8134 34.1376ZM102.967 39.3828C104.235 39.3828 105.002 38.7789 105.002 37.6851C105.002 36.6853 104.548 36.3117 103.443 36.0209L102.861 35.8577C102.244 35.6832 102 35.4729 102 34.9741C102 34.4396 102.385 34.1711 103.163 34.1711C103.803 34.1711 104.385 34.3232 104.687 34.4731V33.7506C104.385 33.5873 103.884 33.4129 103.116 33.4129C101.79 33.4129 101.15 34.075 101.15 35.0524C101.15 36.0299 101.721 36.4124 102.557 36.645L103.128 36.7971C103.861 37.0074 104.127 37.24 104.127 37.7746C104.127 38.298 103.756 38.6245 102.837 38.6245C102.023 38.6245 101.604 38.4501 101.103 38.2644V38.9735C101.58 39.2419 102.208 39.3806 102.964 39.3806L102.967 39.3828Z" fill="#808080"/>
<path d="M4.98134 22.399C8.35196 22.399 10.394 20.7908 10.394 17.883C10.394 15.2235 9.18847 14.2326 6.24952 13.4587L4.70176 13.0247C3.06229 12.5617 2.41367 12.0048 2.41367 10.6739C2.41367 9.2513 3.43358 8.54001 5.50695 8.54001C7.20904 8.54001 8.75456 8.94263 9.55975 9.34525V7.4261C8.75456 6.99217 7.42599 6.52915 5.38393 6.52915C1.85674 6.52915 0.15689 8.29173 0.15689 10.8909C0.15689 13.49 1.67334 14.5099 3.8988 15.1295L5.41525 15.5322C7.36337 16.0891 8.07462 16.7087 8.07462 18.1313C8.07462 19.5226 7.08379 20.3882 4.64137 20.3882C2.47629 20.3882 1.36244 19.9252 0.0338745 19.4286V21.3164C1.30205 22.0277 2.97283 22.399 4.98357 22.399H4.98134ZM25.7978 22.4304C27.8712 22.4304 29.1684 21.6877 29.8797 20.8221H30.034L30.2823 22.153H32.1991V11.0474C32.1991 7.92266 30.3114 6.53139 26.9407 6.53139C25.1783 6.53139 23.6931 6.80875 22.3623 7.36571V9.06789C23.3218 8.79053 24.5274 8.57356 26.0125 8.57356C28.7658 8.57356 29.8171 9.19315 29.8171 11.5731V13.1813L25.6726 13.6756C22.7336 14.0156 21.0024 15.4382 21.0024 18.129C21.0024 21.0055 23.0132 22.4281 25.7956 22.4281L25.7978 22.4304ZM26.3861 20.5738C24.6236 20.5738 23.4784 19.7395 23.4784 18.0686C23.4784 16.3061 24.4066 15.5322 26.2921 15.3465L29.8193 14.9439V19.4599C29.1707 20.1086 27.8086 20.5738 26.3861 20.5738ZM40.553 22.399C43.9236 22.399 45.9657 20.7908 45.9657 17.883C45.9657 15.2235 44.7601 14.2326 41.8212 13.4587L40.2734 13.0247C38.6339 12.5617 37.9853 12.0048 37.9853 10.6739C37.9853 9.2513 39.0052 8.54001 41.0786 8.54001C42.7807 8.54001 44.3262 8.94263 45.1314 9.34525V7.4261C44.3262 6.99217 42.9976 6.52915 40.9556 6.52915C37.4284 6.52915 35.7285 8.29173 35.7285 10.8909C35.7285 13.49 37.245 14.5099 39.4704 15.1295L40.9869 15.5322C42.935 16.0891 43.6463 16.7087 43.6463 18.1313C43.6463 19.5226 42.6554 20.3882 40.213 20.3882C38.0479 20.3882 36.9341 19.9252 35.6055 19.4286V21.3164C36.8737 22.0277 38.5445 22.399 40.5552 22.399H40.553ZM49.4929 22.1508H51.8436V9.71655C53.1117 9.09697 54.7199 8.57133 56.1737 8.57133C58.6184 8.57133 59.267 9.34525 59.267 11.1995V22.1508H61.6177V10.7365C61.6177 7.76609 60.1639 6.52915 57.1646 6.52915C55.2768 6.52915 53.3287 7.17782 51.9979 8.13739H51.8436V0.0022583H49.4929V22.1508Z" fill="#1F1F1F"/>
<path d="M69.9671 22.399C73.3377 22.399 75.3798 20.7908 75.3798 17.883C75.3798 15.2234 74.1742 14.2325 71.2353 13.4586L69.6875 13.0247C68.0481 12.5617 67.3994 12.0047 67.3994 10.6738C67.3994 9.25126 68.4194 8.53997 70.4927 8.53997C72.1948 8.53997 73.7403 8.94259 74.5455 9.34521V7.42606C73.7403 6.99213 72.4118 6.52911 70.3697 6.52911C66.8425 6.52911 65.1427 8.29169 65.1427 10.8908C65.1427 13.4899 66.6591 14.5099 68.8846 15.1295L70.401 15.5321C72.3491 16.0891 73.0604 16.7087 73.0604 18.1312C73.0604 19.5225 72.0696 20.3881 69.6271 20.3881C67.4621 20.3881 66.3482 19.9251 65.0197 19.4286V21.3164C66.2878 22.0277 67.9586 22.399 69.9693 22.399H69.9671ZM85.2166 22.4303C87.6903 22.4303 89.455 21.6564 90.3832 21.0077V19.2452C88.992 19.8938 87.6299 20.3904 85.5879 20.3904C82.3089 20.3904 80.4838 18.9052 80.3608 15.0691H90.8149V13.7382C90.8149 8.9739 88.8355 6.53135 84.6283 6.53135C81.1011 6.53135 77.9475 8.91351 77.9475 14.2639V14.6978C77.9475 19.4934 80.3921 22.4303 85.2166 22.4303ZM84.5679 8.44826C87.073 8.44826 88.3412 9.83953 88.3412 13.1813H80.3608C80.6091 9.56217 82.6489 8.44826 84.5679 8.44826ZM100.497 22.4303C102.631 22.4303 103.993 21.8107 104.982 21.2247V19.3078C104.208 19.7417 102.848 20.3904 100.775 20.3904C97.4958 20.3904 95.8563 18.6278 95.8563 14.6978V13.9552C95.8563 10.4278 97.6814 8.54221 100.464 8.54221C102.475 8.54221 103.463 8.91351 104.825 9.5331V7.55355C103.805 6.90489 102.598 6.53359 100.587 6.53359C96.6279 6.53359 93.4117 8.88443 93.4117 14.3287V14.7917C93.4117 19.8334 96.1023 22.4325 100.495 22.4325L100.497 22.4303Z" fill="#BD3523"/>
<path d="M18.4482 0.0111839L21.0874 0L15.0261 22.4057H12.3712L18.4482 0.0111839Z" fill="#BD3523"/>
</g>
<defs>
<clipPath id="clip0_179_127">
<rect width="105" height="41" fill="white"/>
</clipPath>
</defs>
</svg>
