<svg xmlns="http://www.w3.org/2000/svg" viewBox="0 0 481.48 118.47"><defs><style>.cls-1{fill:red;}</style></defs><title>MA01_SW_Logo_DE_POS_RGB_WEB</title><g id="Logo"><path class="cls-1" d="M41.1,39.46V1.16H0a252.54,252.54,0,0,0,2.87,38.3Z"/><path class="cls-1" d="M41.1,51.52h-36c6.91,32.71,20.25,57.06,36,62.15Z"/><path class="cls-1" d="M53.16,39.46V1.16h41.1a253.86,253.86,0,0,1-2.86,38.3Z"/><path class="cls-1" d="M53.16,51.52h36c-6.91,32.71-20.25,57.06-36,62.15Z"/><path d="M139.35,51a23.84,23.84,0,0,1-6.95-1,25.24,25.24,0,0,1-6.56-3.15l1.3-8.38h.33a20.28,20.28,0,0,0,6.2,3.28,19.46,19.46,0,0,0,5.68.94q7.53,0,7.54-5.58a6,6,0,0,0-1.08-3.51,10.75,10.75,0,0,0-3.8-3.05l-6-3.38q-5.19-2.92-7.37-6.2a13.17,13.17,0,0,1-2.17-7.44,12.39,12.39,0,0,1,4.22-9.93Q134.87,0,142,0a23.55,23.55,0,0,1,12,3.18l-1.3,8.05h-.32a15.78,15.78,0,0,0-4.88-2.17,20.28,20.28,0,0,0-5.26-.75q-6.55,0-6.56,5a5.3,5.3,0,0,0,1.14,3.31,14.4,14.4,0,0,0,4.45,3.32l5.33,2.92a20.72,20.72,0,0,1,7.27,6A13.4,13.4,0,0,1,156,36.69c0,4.51-1.51,8-4.54,10.56S144.42,51,139.35,51Z"/><path d="M169.61,49.88a23.92,23.92,0,0,1-3.54-7.44,34.53,34.53,0,0,1-1.2-9.51V24.81h-5.71v-7.6h5.71V7.53h9v9.68h7.67l-1.3,7.6h-6.37v7.4a27.37,27.37,0,0,0,1.53,9.61,28.89,28.89,0,0,0,4.25,7.6v.46Z"/><path d="M194.81,50.4a10.77,10.77,0,0,1-7.53-2.54,9.08,9.08,0,0,1-2.79-7.08,8.92,8.92,0,0,1,3.24-7.27,15.87,15.87,0,0,1,8.77-3.18l9.09-.91v-.07a5.25,5.25,0,0,0-1.46-4Q202.68,24,198.77,24a26.57,26.57,0,0,0-5.94.69A21.38,21.38,0,0,0,188,26.24h-.39l1.3-7.73A29.55,29.55,0,0,1,194,17.05a32.55,32.55,0,0,1,6.43-.62q7.33,0,10.78,3.44t3.44,10V40.26a34.52,34.52,0,0,0,.36,5,13.77,13.77,0,0,0,1.2,4.16v.46h-8.51a16.74,16.74,0,0,1-.71-2.44,15.72,15.72,0,0,1-.39-2.69h-.39a9.68,9.68,0,0,1-4.29,4A15,15,0,0,1,194.81,50.4Zm-1.1-10.27a3.32,3.32,0,0,0,.94,2.41,4.14,4.14,0,0,0,3.08,1,8.17,8.17,0,0,0,5.62-2,6.65,6.65,0,0,0,2.24-5.23v-.78l-6.88.78a7.91,7.91,0,0,0-3.8,1.14A3.1,3.1,0,0,0,193.71,40.13Z"/><path d="M246.76,49.88V44.94h-.39a10.16,10.16,0,0,1-4.25,4.19,13.22,13.22,0,0,1-6.4,1.52,13.43,13.43,0,0,1-7.59-2.14,14.24,14.24,0,0,1-5.07-6,20.91,20.91,0,0,1-1.82-9,21,21,0,0,1,1.79-9,14,14,0,0,1,5.06-6,14.54,14.54,0,0,1,13.67-.81,9.85,9.85,0,0,1,4.16,3.61h.45V1.17h9.1V49.88Zm-8.18-7.08a7.49,7.49,0,0,0,5.94-2.57,9.81,9.81,0,0,0,2.24-6.72,9.68,9.68,0,0,0-2.24-6.72,8.34,8.34,0,0,0-11.88,0,9.93,9.93,0,0,0-2.18,6.81,9.9,9.9,0,0,0,2.18,6.73A7.49,7.49,0,0,0,238.58,42.8Z"/><path d="M270.73,49.88a23.92,23.92,0,0,1-3.54-7.44,34.53,34.53,0,0,1-1.2-9.51V24.81h-5.72v-7.6H266V7.53h9v9.68h7.66l-1.3,7.6H275v7.4a27.37,27.37,0,0,0,1.53,9.61,28.33,28.33,0,0,0,4.25,7.6v.46Z"/><path d="M147.47,111.94h-11q-1.62-3.63-3.51-9c-1.25-3.58-2.47-7.55-3.63-11.92s-2.19-8.93-3.06-13.67a135.9,135.9,0,0,1-1.82-14.13h9.88q.51,6.5,1.72,13.51t2.82,13.67q1.62,6.66,3.38,12.24h.45l9.87-33h7.28l9.87,33h.45q1.76-5.58,3.32-12.24t2.72-13.67q1.17-7,1.69-13.51h9.74a130.7,130.7,0,0,1-1.82,14.13q-1.29,7.11-3.05,13.67T179.1,103q-1.89,5.35-3.51,9h-11L156.3,84.53h-.45Z"/><path d="M198.9,74.08a5.71,5.71,0,0,1-4.22-1.62,5.5,5.5,0,0,1-1.62-4,5.34,5.34,0,0,1,1.62-4,6.49,6.49,0,0,1,8.44,0,5.31,5.31,0,0,1,1.63,4,5.47,5.47,0,0,1-1.63,4A5.71,5.71,0,0,1,198.9,74.08Zm-4.54,37.86V79.27h9.09v32.67Z"/><path d="M227.22,112.72a19.07,19.07,0,0,1-9.19-2.08,14.22,14.22,0,0,1-5.94-5.91,18.44,18.44,0,0,1-2.08-9,18.56,18.56,0,0,1,2.17-9.25,15,15,0,0,1,6-6,18,18,0,0,1,8.7-2.08q7.22,0,11.24,4.42c2.68,3,4,7,4,12.21v2l-22.47,2.54a6.74,6.74,0,0,0,3.25,4.22,12.15,12.15,0,0,0,5.72,1.23,24.81,24.81,0,0,0,6.36-.84,17.67,17.67,0,0,0,4.81-1.89h.45l-1.3,7.8a21.82,21.82,0,0,1-5.06,1.75A28.61,28.61,0,0,1,227.22,112.72Zm-.52-26.95a7.06,7.06,0,0,0-5,1.85,8.7,8.7,0,0,0-2.44,5.55l13.9-1.56A6.89,6.89,0,0,0,231,87.16,6.48,6.48,0,0,0,226.7,85.77Z"/><path d="M248.45,111.94V79.27h8.25v5.52h.39a9.84,9.84,0,0,1,4.06-4.57,12.39,12.39,0,0,1,6.59-1.73,11.28,11.28,0,0,1,9,3.8c2.18,2.54,3.28,6,3.28,10.56v19.09h-9.1V94q0-7.67-6.3-7.67a6.42,6.42,0,0,0-5.13,2.28,9,9,0,0,0-1.94,6v17.27Z"/><rect class="cls-1" x="312.77" y="1.16" width="1.53" height="112.55"/></g><g id="Magistratsbezeichnung"><path d="M351.4,112h-2.68c-.45-.93-.93-2.08-1.45-3.46s-1-2.9-1.49-4.58-.91-3.42-1.28-5.23a51.65,51.65,0,0,1-.81-5.39h2.44a57.26,57.26,0,0,0,.91,5.76q.6,2.92,1.4,5.61t1.57,4.8h.12l4.51-13.68h1.74l4.45,13.73H361c.53-1.41,1-3,1.58-4.81s1-3.68,1.4-5.64a49.92,49.92,0,0,0,.9-5.77h2.44a54.39,54.39,0,0,1-.8,5.39c-.37,1.81-.79,3.56-1.28,5.23s-1,3.21-1.51,4.58-1,2.53-1.44,3.46h-2.76l-3.93-12.31h-.15Z"/><path d="M371.27,96.93a1.66,1.66,0,0,1-1.18-.44,1.5,1.5,0,0,1-.46-1.13,1.51,1.51,0,0,1,.46-1.13,1.85,1.85,0,0,1,2.37,0,1.51,1.51,0,0,1,.46,1.13,1.5,1.5,0,0,1-.46,1.13A1.66,1.66,0,0,1,371.27,96.93Zm-1.11,15V99.62h2.23V112Z"/><path d="M381.62,112.28a6.69,6.69,0,0,1-3.38-.81,5.51,5.51,0,0,1-2.19-2.27,7.87,7.87,0,0,1,0-6.81,5.65,5.65,0,0,1,2.18-2.26,6.28,6.28,0,0,1,3.21-.81,5.08,5.08,0,0,1,4,1.64,6.42,6.42,0,0,1,1.44,4.4v.55l-9.18,1.17a3.77,3.77,0,0,0,1.51,2.5,4.77,4.77,0,0,0,2.74.78,8.2,8.2,0,0,0,2.27-.33,6.45,6.45,0,0,0,1.84-.84h.12l-.3,2a7.71,7.71,0,0,1-1.76.76A8.43,8.43,0,0,1,381.62,112.28Zm-.32-11a3.34,3.34,0,0,0-2.56,1,4.54,4.54,0,0,0-1.1,2.94l7-.89a3.5,3.5,0,0,0-1.1-2.34A3.32,3.32,0,0,0,381.3,101.23Z"/><path d="M389.75,112V99.62h2.07v2.28h.12a4,4,0,0,1,1.66-1.9,5,5,0,0,1,2.62-.68,4.44,4.44,0,0,1,3.53,1.49,6.07,6.07,0,0,1,1.3,4.1V112h-2.24v-6.72c0-2.63-1.06-4-3.16-4a3.36,3.36,0,0,0-2.63,1.17,4.41,4.41,0,0,0-1,3V112Z"/><path d="M410.4,112V93.32h6.54a10.17,10.17,0,0,1,3.64.64,8.84,8.84,0,0,1,3,1.83,8.35,8.35,0,0,1,2,2.92,11.11,11.11,0,0,1,0,7.87,8.43,8.43,0,0,1-2,2.94,9,9,0,0,1-3,1.82,10.17,10.17,0,0,1-3.64.64Zm2.39-2.12h4.15a7.37,7.37,0,0,0,3.47-.82,6.19,6.19,0,0,0,2.52-2.43,8.75,8.75,0,0,0,0-7.93,6.23,6.23,0,0,0-2.52-2.42,7.37,7.37,0,0,0-3.47-.82h-4.15Z"/><path d="M430.35,96.93a1.66,1.66,0,0,1-1.19-.44,1.5,1.5,0,0,1-.46-1.13,1.51,1.51,0,0,1,.46-1.13,1.85,1.85,0,0,1,2.37,0,1.51,1.51,0,0,1,.46,1.13,1.5,1.5,0,0,1-.46,1.13A1.66,1.66,0,0,1,430.35,96.93Zm-1.12,15V99.62h2.24V112Z"/><path d="M440.19,118.47a9.89,9.89,0,0,1-2.77-.36,5.71,5.71,0,0,1-2-1l.35-2h.1a6.41,6.41,0,0,0,4.08,1.19,4.64,4.64,0,0,0,3.47-1.23,4.87,4.87,0,0,0,1.21-3.54v-2h-.13a4.09,4.09,0,0,1-1.76,1.73,5.92,5.92,0,0,1-5.69-.14,5.46,5.46,0,0,1-2-2.22,7.31,7.31,0,0,1-.72-3.32,7.21,7.21,0,0,1,.72-3.31,5.43,5.43,0,0,1,2-2.22,5.94,5.94,0,0,1,5.7-.12,4.18,4.18,0,0,1,1.81,1.82h.12a9.45,9.45,0,0,1,.18-1.16,6.25,6.25,0,0,1,.27-1h2.31v.12a9.26,9.26,0,0,0-.59,3.66v8.18a7,7,0,0,1-1.78,5.06A6.56,6.56,0,0,1,440.19,118.47Zm.45-8.48a3.82,3.82,0,0,0,3-1.21,4.95,4.95,0,0,0,0-6.27,4.24,4.24,0,0,0-5.88,0,4.47,4.47,0,0,0-1.08,3.16,4.53,4.53,0,0,0,1.08,3.17A3.8,3.8,0,0,0,440.64,110Z"/><path d="M451.59,96.93a1.66,1.66,0,0,1-1.19-.44,1.5,1.5,0,0,1-.46-1.13,1.51,1.51,0,0,1,.46-1.13,1.85,1.85,0,0,1,2.37,0,1.51,1.51,0,0,1,.46,1.13,1.5,1.5,0,0,1-.46,1.13A1.66,1.66,0,0,1,451.59,96.93Zm-1.12,15V99.62h2.24V112Z"/><path d="M462.73,112.05h-1.27a3.83,3.83,0,0,1-3-1.3,5.22,5.22,0,0,1-1.13-3.52v-5.67h-2.53V99.62h2.53V95.76h2.24v3.86h3.56l-.35,1.94h-3.21v5.37a3.69,3.69,0,0,0,.68,2.45,2.74,2.74,0,0,0,2.16.78h.72Z"/><path d="M468.8,112.18a4,4,0,0,1-2.84-1,3.46,3.46,0,0,1-1-2.64q0-3.48,4.3-3.9l4.18-.4V104a2.72,2.72,0,0,0-.76-2.14,3.7,3.7,0,0,0-2.45-.67,8.11,8.11,0,0,0-2.06.29,7.62,7.62,0,0,0-1.92.76h-.12l.27-2a8.82,8.82,0,0,1,2.05-.69,10.46,10.46,0,0,1,2.3-.25q4.94,0,4.93,4.75v4.13a9.5,9.5,0,0,0,.59,3.65V112H474.1a6.82,6.82,0,0,1-.28-1.11c-.08-.45-.14-.86-.17-1.23h-.13a3.74,3.74,0,0,1-1.76,1.83A6.08,6.08,0,0,1,468.8,112.18Zm-1.64-3.73a1.73,1.73,0,0,0,.52,1.33,2.29,2.29,0,0,0,1.59.48,4.61,4.61,0,0,0,2.13-.48,3.76,3.76,0,0,0,1.46-1.33,3.52,3.52,0,0,0,.54-1.92V106l-3.73.37C468,106.55,467.16,107.24,467.16,108.45Z"/><path d="M479.24,112V92.58h2.24V112Z"/></g></svg>