<?xml version="1.0" encoding="UTF-8" standalone="no"?><!DOCTYPE svg PUBLIC "-//W3C//DTD SVG 1.1//EN" "http://www.w3.org/Graphics/SVG/1.1/DTD/svg11.dtd"><svg width="100%" height="100%" viewBox="0 0 878 714" version="1.1" xmlns="http://www.w3.org/2000/svg" xmlns:xlink="http://www.w3.org/1999/xlink" xml:space="preserve" xmlns:serif="http://www.serif.com/" style="fill-rule:evenodd;clip-rule:evenodd;stroke-linejoin:round;stroke-miterlimit:2;"><g><path d="M241.977,0.36c-12.446,5.092 -56.609,25.721 -105.196,78.734c-69.317,75.633 -124.479,192.979 -135.996,218.366c-1.238,2.721 -0.979,6.03 0.546,7.367c1.521,1.338 4.225,0.463 6.033,-1.95c0,0 80.271,-124.179 130.225,-176.596c2.088,-2.187 5.438,-2.308 7.738,-0.296l666.612,584.434c4.596,4.025 11.725,3.725 15.9,-0.663l11.871,-12.491c4.175,-4.396 3.837,-11.242 -0.758,-15.271l-663.367,-581.596c-6.092,-5.904 -14.708,-17.908 -2.717,-34.567c15.446,-21.433 65.604,-49.433 78.921,-56.629c1.8,-0.979 2.033,-2.846 0.5,-4.192l-4.054,-3.55c-1.533,-1.341 -4.35,-1.879 -6.258,-1.1Zm-165.571,187.346l-5.863,8.138c-1.046,1.454 -3.125,1.808 -4.641,0.8l-0.563,-0.379c-1.517,-1.009 -1.9,-3.005 -0.854,-4.455l5.867,-8.137c1.054,-1.454 3.129,-1.813 4.641,-0.796l0.563,0.371c1.516,1.012 1.904,3.008 0.85,4.458Zm22.154,-30.783l-6.6,8.754c-1.175,1.567 -3.458,1.904 -5.088,0.771l-0.608,-0.417c-1.629,-1.137 -1.996,-3.329 -0.825,-4.891l6.604,-8.759c1.175,-1.566 3.454,-1.912 5.088,-0.775l0.6,0.429c1.633,1.134 2,3.325 0.829,4.888Zm24.067,-31.529l-7.784,9.579c-1.391,1.708 -3.958,2.008 -5.746,0.662l-0.658,-0.495c-1.783,-1.338 -2.117,-3.809 -0.725,-5.517l7.783,-9.575c1.384,-1.713 3.955,-2.013 5.742,-0.667l0.658,0.492c1.796,1.346 2.113,3.817 0.73,5.521Zm23.166,-24.829c-2.258,2.375 -6.104,2.533 -8.587,0.358c-2.488,-2.183 -2.671,-5.875 -0.413,-8.254c2.259,-2.375 6.109,-2.538 8.592,-0.359c2.487,2.184 2.671,5.875 0.408,8.255Z" style="fill:#030404;fill-rule:nonzero;"/><path d="M164.239,79.373c0,-0 -0.067,-0.271 -0.15,-0.796c-0.062,-0.521 -0.2,-1.308 -0.171,-2.3c-0.029,-0.996 0.067,-2.204 0.221,-3.592c0.225,-1.366 0.458,-2.929 0.967,-4.57c0.391,-1.684 1.1,-3.409 1.791,-5.259c0.859,-1.766 1.596,-3.733 2.738,-5.566c0.542,-0.938 1.087,-1.888 1.637,-2.846c0.605,-0.934 1.234,-1.867 1.884,-2.792c1.246,-1.896 2.712,-3.675 4.141,-5.475c1.413,-1.821 3.05,-3.446 4.584,-5.121c1.5,-1.704 3.187,-3.166 4.766,-4.637c1.588,-1.459 3.117,-2.884 4.705,-4.075c1.533,-1.246 3.02,-2.388 4.391,-3.434c1.342,-1.083 2.709,-1.912 3.875,-2.704c1.175,-0.762 2.204,-1.433 3.054,-1.983c1.705,-1.079 2.692,-1.667 2.692,-1.667c0,0 -0.796,0.825 -2.225,2.225c-0.721,0.692 -1.596,1.525 -2.6,2.484c-0.996,0.97 -2.175,1.979 -3.362,3.204c-1.2,1.2 -2.5,2.5 -3.909,3.837c-1.433,1.313 -2.771,2.846 -4.258,4.342c-1.479,1.5 -2.975,3.075 -4.421,4.733c-1.454,1.646 -3.012,3.263 -4.35,5.038c-1.417,1.716 -2.867,3.408 -4.096,5.204c-0.641,0.875 -1.287,1.75 -1.921,2.608c-0.583,0.896 -1.154,1.771 -1.72,2.638c-1.18,1.712 -2.075,3.479 -3.063,5.108c-0.8,1.7 -1.717,3.263 -2.296,4.792c-0.675,1.512 -1.154,2.937 -1.604,4.208c-0.358,1.288 -0.717,2.417 -0.883,3.367c-0.4,1.896 -0.417,3.029 -0.417,3.029Z" style="fill:#fff;fill-rule:nonzero;"/><path d="M175.093,115.431c0,0 10.009,8.517 27.517,23.421c8.733,7.471 19.333,16.55 31.496,26.963c12.162,10.408 25.887,22.154 40.775,35.058c14.904,12.883 31.054,26.833 48.133,41.596c17.075,14.762 35.121,30.296 53.633,46.516c37.105,32.375 76.684,66.909 116.255,101.438c39.404,34.712 78.812,69.421 115.758,101.967c18.504,16.237 36.254,32.075 53.108,47.07c16.859,14.992 32.796,29.167 47.504,42.255c14.738,13.062 28.163,25.12 40.059,35.812c11.904,10.688 22.275,20 30.825,27.675c17.041,15.4 26.779,24.188 26.779,24.188c-0,-0 -10.008,-8.513 -27.513,-23.413c-8.737,-7.475 -19.341,-16.55 -31.504,-26.967c-12.162,-10.4 -25.887,-22.145 -40.775,-35.054c-14.904,-12.879 -31.05,-26.833 -48.133,-41.596c-17.079,-14.754 -35.117,-30.295 -53.629,-46.52c-37.104,-32.371 -76.684,-66.909 -116.259,-101.438c-39.4,-34.712 -78.804,-69.425 -115.754,-101.967c-18.5,-16.237 -36.241,-32.083 -53.104,-47.075c-16.862,-14.991 -32.792,-29.17 -47.508,-42.258c-14.729,-13.058 -28.159,-25.121 -40.054,-35.812c-11.905,-10.684 -22.284,-19.992 -30.825,-27.671c-17.046,-15.392 -26.784,-24.188 -26.784,-24.188Z" style="fill:#fff;fill-rule:nonzero;"/><path d="M740.468,72.744l60.863,-51.588l50.641,62.904l-60.862,51.588l-50.642,-62.904Z" style="fill:#030404;fill-rule:nonzero;"/><path d="M796.335,117.427l-34.608,-42.983l40.087,-33.975l34.604,42.983l-40.083,33.975Z" style="fill:#030404;fill-rule:nonzero;"/><path d="M761.727,74.444l1.345,1.591l38.459,-32.595l31.991,39.737l-36.904,31.279l-33.271,-41.316l-1.62,1.304l1.345,1.591l-1.345,-1.591l-1.625,1.308l35.95,44.646l43.262,-36.667l-37.217,-46.233l-43.266,36.671l1.271,1.583l1.625,-1.308Z" style="fill:#565757;fill-rule:nonzero;"/><path d="M808.927,30.59l34.233,-29.013l34.608,42.983l-34.233,29.017l-34.608,-42.987Z" style="fill:#565757;fill-rule:nonzero;"/><path d="M848.881,64.302l-22.546,-28.337l22.546,28.337Z" style="fill:#565757;fill-rule:nonzero;"/><path d="M824.297,37.59l9.73,12.225l4.075,-3.242l-9.73,-12.229l-4.075,3.246Zm16.213,20.375l6.333,7.962l4.075,-3.246l-6.333,-7.958l-4.075,3.242Z" style="fill:#fff;fill-rule:nonzero;"/><path d="M740.468,72.744l-12.129,34.971l22.983,28.545l39.788,-0.616l-50.642,-62.9Z" style="fill:#030404;fill-rule:nonzero;"/><path d="M719.122,115.523l9.217,-7.808l22.983,28.545l-9.216,7.813l-22.984,-28.55Z" style="fill:#030404;fill-rule:nonzero;"/><path d="M46.772,695.015l681.188,-577.355l14.154,17.584l-681.192,577.354l-14.15,-17.583Z" style="fill:#030404;fill-rule:nonzero;"/><path d="M722.839,132.285c0,0 -10.046,8.28 -27.625,22.775c-8.771,7.271 -19.417,16.1 -31.629,26.23c-12.213,10.125 -25.996,21.55 -40.954,34.112c-14.971,12.538 -31.192,26.113 -48.354,40.483c-17.155,14.367 -35.28,29.48 -53.884,45.275c-37.287,31.525 -77.058,65.146 -116.829,98.767c-39.612,33.817 -79.225,67.629 -116.362,99.329c-18.6,15.817 -36.45,31.254 -53.405,45.867c-16.954,14.612 -32.979,28.429 -47.77,41.183c-14.821,12.729 -28.325,24.488 -40.292,34.909c-11.979,10.42 -22.413,19.504 -31.013,26.987c-17.145,15.017 -26.95,23.592 -26.95,23.592c0,-0 10.055,-8.284 27.63,-22.771c8.775,-7.271 19.42,-16.1 31.637,-26.233c12.213,-10.117 25.996,-21.546 40.954,-34.105c14.971,-12.533 31.192,-26.116 48.35,-40.483c17.159,-14.362 35.279,-29.483 53.888,-45.283c37.283,-31.521 77.054,-65.146 116.821,-98.771c39.612,-33.813 79.225,-67.629 116.366,-99.329c18.596,-15.813 36.442,-31.259 53.396,-45.871c16.958,-14.608 32.979,-28.429 47.775,-41.183c14.817,-12.725 28.325,-24.488 40.292,-34.913c11.975,-10.412 22.412,-19.492 31.004,-26.975c17.158,-15.012 26.954,-23.592 26.954,-23.592Z" style="fill:#fff;fill-rule:nonzero;"/><path d="M411.127,93.977l-205.496,117.425c-17.217,9.838 -31.179,33.9 -31.179,53.733l-0,243.2c-0,19.834 13.962,43.896 31.179,53.742l205.496,117.417c17.225,9.841 45.141,9.841 62.362,0.004l205.492,-117.421c17.221,-9.846 31.187,-33.908 31.187,-53.742l0,-243.2c0,-19.833 -13.966,-43.895 -31.187,-53.733l-205.492,-117.425c-17.221,-9.842 -45.142,-9.842 -62.362,0Z" style="fill:#9cbfc0;fill-rule:nonzero;"/><path d="M681.902,322.931l-29.013,-28.304l-8.2,-24.675l-33.558,-44.687l-34.904,32.116l-17.217,8.975l-4.675,-2.812l-20.579,-17.384l-10.984,-13.266l-75.845,-84.071l-41.859,58.05l-13.091,10.925l-47.405,57.762l-24.437,0.534l-45.746,-36.713l-31.767,55.246l-68.17,116.817l10.095,138.412l257.763,139.567l256.792,-139.533l10.208,-142.884l-27.408,-84.075Z" style="fill:#030404;fill-rule:nonzero;"/><path d="M611.339,341.531l45.071,36.671l-110.633,-110.158l32.55,45.121l10.387,28.337l-4.104,-21.842l50.679,48.021l-23.95,-26.15Z" style="fill:#fff;fill-rule:nonzero;"/><path d="M593.172,254.66l-16.512,19.121l12.708,-7.854l-10.737,14.508l61.833,64.305l-12.571,-28.742l11.109,17.971l-14.542,-30.571l10.829,17.325l-24.971,-54.371l-1.375,-30.283l-39.362,34.646l23.591,-16.055Z" style="fill:#fff;fill-rule:nonzero;"/><path d="M298.777,275.677l-22.042,-27.558l-43.646,79.112l37.821,-60.5l-34.4,68.734l23.979,-36.13l-23.25,49.042l6.296,22.371l24.771,-32.075l-16.992,31.512l33.629,-47.458l-14.325,29.758l41.313,-46.979l4.291,-22.587l-17.445,-7.242Z" style="fill:#fff;fill-rule:nonzero;"/><path d="M482.268,243.969l-14.3,16.862l16.475,-28.596l-22.225,28.825l22.471,-35.145l-23.037,-28.43l26.258,21.271l-30.638,-35.812l28.346,24.246l-29.758,-32.888l-18.546,21.413l13.858,-29.15l-39.27,47.583l-9.93,6.646l-77.475,99.246l29.459,-22.409l3.829,10.884l0.083,1.212l8.659,-7.179l-8.071,14.15l19.216,-20.013l-17.37,28.217l37.191,-46.475l-39.612,63.213l27.637,49.854l11.663,-22.775l-6.829,31.491l0.016,0.034l26.221,-61.117l-19.858,68.629l40.129,-108.421l-30.917,109.563l45.813,-129.913l36.733,-23.341l-14.096,3.579l7.875,-15.254Z" style="fill:#fff;fill-rule:nonzero;"/><path d="M396.164,628.215c0,3.025 -2.45,5.479 -5.475,5.479c-3.025,-0 -5.475,-2.454 -5.475,-5.479c0,-3.025 2.45,-5.471 5.475,-5.471c3.025,-0 5.475,2.446 5.475,5.471Z" style="fill:#fff;fill-rule:nonzero;"/><path d="M503.522,628.215c0,3.025 -2.45,5.479 -5.475,5.479c-3.025,-0 -5.475,-2.454 -5.475,-5.479c0,-3.025 2.45,-5.471 5.475,-5.471c3.025,-0 5.475,2.446 5.475,5.471Z" style="fill:#fff;fill-rule:nonzero;"/><path d="M442.318,695.448l-0.004,-0c-13.25,-0 -25.837,-3.025 -35.437,-8.513l-205.492,-117.416c-19.913,-11.379 -35.508,-38.259 -35.508,-61.184l-0,-243.2c-0,-22.929 15.595,-49.8 35.508,-61.175l205.492,-117.425c9.6,-5.487 22.183,-8.512 35.433,-8.512c13.246,-0 25.829,3.025 35.433,8.512l205.488,117.425c19.912,11.375 35.508,38.246 35.508,61.175l0,243.2c0,22.925 -15.596,49.805 -35.504,61.184l-205.492,117.421c-9.604,5.487 -22.187,8.508 -35.425,8.508Zm-0.008,-600.279c-10.163,-0 -19.979,2.279 -26.925,6.254l-205.496,117.425c-14.562,8.321 -26.867,29.517 -26.867,46.287l0,243.2c0,16.771 12.305,37.975 26.867,46.296l205.492,117.421c6.954,3.971 16.771,6.25 26.933,6.254c10.158,0 19.971,-2.279 26.925,-6.25l205.488,-117.425c14.562,-8.325 26.866,-29.525 26.866,-46.296l0,-243.2c0,-16.77 -12.304,-37.966 -26.862,-46.287l-205.492,-117.425c-6.954,-3.975 -16.771,-6.254 -26.929,-6.254Z" style="fill:#030404;fill-rule:nonzero;"/><path d="M271.41,482.215l-0,17.512c2.292,-0.079 3.754,-0.437 4.387,-1.083c0.63,-0.646 0.946,-2.229 0.946,-4.754l0,-5.838c0,-2.679 -0.283,-4.304 -0.85,-4.871c-0.566,-0.566 -2.062,-0.887 -4.483,-0.966Zm-0,-23.659l-0,13.917c0.696,-0.025 1.233,-0.038 1.621,-0.038c1.6,0 2.616,-0.391 3.054,-1.179c0.437,-0.787 0.658,-3.033 0.658,-6.746c0,-1.958 -0.179,-3.329 -0.541,-4.116c-0.363,-0.788 -0.834,-1.284 -1.413,-1.488c-0.579,-0.208 -1.704,-0.325 -3.379,-0.35Zm-16.275,-10.708l16.233,-0c5.129,-0 9.017,0.4 11.659,1.2c2.641,0.796 4.775,2.412 6.395,4.85c1.625,2.437 2.438,6.358 2.438,11.771c-0,3.662 -0.575,6.212 -1.721,7.654c-1.146,1.446 -3.408,2.554 -6.783,3.325c3.762,0.85 6.312,2.262 7.654,4.233c1.337,1.971 2.008,4.996 2.008,9.067l0,5.796c0,4.229 -0.483,7.358 -1.45,9.396c-0.966,2.037 -2.508,3.429 -4.621,4.175c-2.112,0.745 -6.441,1.12 -12.987,1.12l-18.825,0l-0,-62.587Z" style="fill:#fff;fill-rule:nonzero;"/><path d="M313.793,447.848l0,50.062l9.896,0l0,12.525l-26.171,0l0,-62.587l16.275,-0Z" style="fill:#fff;fill-rule:nonzero;"/><path d="M349.089,488.09c-0.825,-7.088 -1.65,-15.834 -2.475,-26.246c-1.65,11.958 -2.679,20.708 -3.092,26.246l5.567,-0Zm8.621,-40.242l9.317,62.587l-16.663,0l-0.812,-11.25l-5.838,0l-0.967,11.25l-16.854,0l8.271,-62.587l23.546,-0Z" style="fill:#fff;fill-rule:nonzero;"/><path d="M407.81,475.14l-16.275,-0l-0,-10.9c-0,-3.171 -0.175,-5.146 -0.521,-5.934c-0.346,-0.787 -1.112,-1.179 -2.3,-1.179c-1.342,0 -2.192,0.475 -2.554,1.429c-0.358,0.954 -0.538,3.013 -0.538,6.184l0,29.075c0,3.037 0.18,5.02 0.538,5.95c0.362,0.929 1.175,1.391 2.437,1.391c1.213,0 2.005,-0.462 2.38,-1.391c0.37,-0.93 0.558,-3.105 0.558,-6.534l-0,-7.846l16.275,0l-0,2.434c-0,6.471 -0.458,11.058 -1.371,13.762c-0.917,2.709 -2.942,5.079 -6.071,7.117c-3.129,2.037 -6.991,3.054 -11.579,3.054c-4.771,0 -8.696,-0.862 -11.792,-2.592c-3.091,-1.729 -5.141,-4.116 -6.145,-7.17c-1.005,-3.055 -1.505,-7.65 -1.505,-13.784l0,-18.283c0,-4.513 0.155,-7.896 0.463,-10.15c0.308,-2.254 1.229,-4.425 2.762,-6.513c1.534,-2.087 3.659,-3.733 6.38,-4.929c2.72,-1.196 5.845,-1.796 9.375,-1.796c4.795,0 8.75,0.93 11.866,2.784c3.121,1.854 5.171,4.166 6.15,6.937c0.979,2.771 1.467,7.079 1.467,12.929l-0,5.955Z" style="fill:#fff;fill-rule:nonzero;"/><path d="M451.085,447.848l-9.317,28.258l10.204,34.329l-16.816,0l-6.571,-26.829l-0,26.829l-16.275,0l-0,-62.587l16.275,-0l-0,24.317l7.229,-24.317l15.271,-0Z" style="fill:#fff;fill-rule:nonzero;"/><path d="M510.185,447.848l-0,62.587l-16.275,0l-0,-26.287l-4.871,-0l0,26.287l-16.275,0l0,-62.587l16.275,-0l0,22.383l4.871,0l-0,-22.383l16.275,-0Z" style="fill:#fff;fill-rule:nonzero;"/><rect x="516.718" y="447.848" width="16.275" height="62.588" style="fill:#fff;fill-rule:nonzero;"/><path d="M554.464,447.848l0,50.062l9.9,0l0,12.525l-26.175,0l0,-62.587l16.275,-0Z" style="fill:#fff;fill-rule:nonzero;"/><path d="M584.581,447.848l-0,50.062l9.896,0l-0,12.525l-26.171,0l-0,-62.587l16.275,-0Z" style="fill:#fff;fill-rule:nonzero;"/><path d="M632.364,466.79l-15.117,-0l0,-4.638c0,-2.167 -0.191,-3.546 -0.579,-4.137c-0.387,-0.592 -1.029,-0.888 -1.933,-0.888c-0.979,0 -1.721,0.4 -2.225,1.196c-0.504,0.8 -0.754,2.012 -0.754,3.633c-0,2.088 0.283,3.663 0.854,4.717c0.537,1.058 2.071,2.333 4.6,3.829c7.242,4.304 11.804,7.833 13.683,10.592c1.879,2.758 2.821,7.204 2.821,13.337c0,4.459 -0.521,7.746 -1.562,9.859c-1.046,2.112 -3.063,3.887 -6.05,5.316c-2.992,1.429 -6.471,2.146 -10.442,2.146c-4.354,0 -8.071,-0.825 -11.15,-2.475c-3.079,-1.65 -5.096,-3.75 -6.05,-6.304c-0.954,-2.55 -1.433,-6.171 -1.433,-10.863l-0,-4.095l15.116,-0l0,7.616c0,2.346 0.213,3.85 0.638,4.521c0.425,0.671 1.179,1.004 2.262,1.004c1.084,0 1.888,-0.425 2.417,-1.275c0.529,-0.85 0.792,-2.112 0.792,-3.787c-0,-3.688 -0.505,-6.096 -1.509,-7.229c-1.029,-1.134 -3.571,-3.03 -7.616,-5.684c-4.046,-2.679 -6.725,-4.625 -8.038,-5.837c-1.317,-1.213 -2.404,-2.888 -3.267,-5.025c-0.862,-2.138 -1.295,-4.871 -1.295,-8.196c-0,-4.796 0.612,-8.3 1.837,-10.517c1.221,-2.216 3.2,-3.95 5.933,-5.196c2.73,-1.25 6.03,-1.875 9.896,-1.875c4.229,0 7.829,0.684 10.804,2.046c2.98,1.367 4.95,3.088 5.917,5.163c0.967,2.075 1.45,5.6 1.45,10.571l0,2.475Z" style="fill:#fff;fill-rule:nonzero;"/><path d="M261.056,575.106l-1.938,0l-0.562,-0.562l-0,-28.684c-0,-0.379 0.187,-0.566 0.562,-0.566l1.938,-0c0.375,-0 0.562,0.187 0.562,0.566l0,28.684c0,0.375 -0.187,0.562 -0.562,0.562Z" style="fill:#fff;fill-rule:nonzero;"/><path d="M285.631,574.544c-0,0.375 -0.188,0.562 -0.567,0.562l-1.608,0c-0.379,0 -0.567,-0.187 -0.567,-0.562l0,-12.692c0,-2.471 -0.442,-4.221 -1.329,-5.254c-0.888,-1.038 -2.133,-1.554 -3.746,-1.554c-2.175,-0 -3.833,0.604 -4.975,1.812c-1.142,1.209 -1.712,2.9 -1.712,5.079l-0,12.609c-0,0.375 -0.188,0.562 -0.567,0.562l-1.608,0c-0.38,0 -0.567,-0.187 -0.567,-0.562l-0,-16.117c-0,-1.154 -0.004,-2.05 -0.017,-2.696c-0.012,-0.646 -0.05,-1.262 -0.104,-1.854l0.142,-0.425l0.425,-0.142l1.45,0c0.375,0 0.562,0.188 0.562,0.567l0,2.217c0.754,-1.154 1.659,-2.004 2.721,-2.542c1.063,-0.537 2.517,-0.804 4.371,-0.804c2.554,-0 4.475,0.737 5.762,2.217c1.288,1.479 1.934,3.558 1.934,6.245l-0,13.334Z" style="fill:#fff;fill-rule:nonzero;"/><path d="M302.552,542.715c0.345,0.108 0.508,0.391 0.483,0.85l-0.083,1.166l-0.2,0.3l-0.363,-0.016l-0.804,-0.225l-0.846,-0.059c-1.587,0 -2.608,0.792 -3.062,2.375c-0.188,0.646 -0.284,2.067 -0.284,4.271l0,1.933l4.434,0c0.375,0 0.562,0.188 0.562,0.567l0,1.208c0,0.375 -0.187,0.563 -0.562,0.563l-4.434,-0l0,18.896c0,0.375 -0.187,0.562 -0.562,0.562l-1.571,0c-0.379,0 -0.567,-0.187 -0.567,-0.562l0,-18.896l-3.908,-0c-0.375,-0 -0.563,-0.188 -0.563,-0.563l0,-1.208c0,-0.379 0.188,-0.567 0.563,-0.567l3.908,0l0,-1.65c0,-2.929 0.271,-5.037 0.809,-6.325c0.829,-1.933 2.495,-2.9 4.995,-2.9c0.78,0 1.463,0.092 2.055,0.28Z" style="fill:#fff;fill-rule:nonzero;"/><path d="M326.36,564.231c-0,1.584 -0.229,3.054 -0.683,4.413c-0.459,1.354 -1.063,2.541 -1.813,3.562c-0.942,1.129 -2.062,2 -3.367,2.621c-1.304,0.617 -2.787,0.925 -4.45,0.925c-1.666,0 -3.158,-0.308 -4.47,-0.925c-1.317,-0.621 -2.446,-1.492 -3.388,-2.621c-0.75,-1.021 -1.346,-2.208 -1.792,-3.562c-0.441,-1.359 -0.662,-2.829 -0.662,-4.413c-0,-3.25 0.817,-5.908 2.454,-7.979c1.879,-2.337 4.5,-3.504 7.858,-3.504c1.692,-0 3.184,0.287 4.471,0.867c1.288,0.579 2.404,1.458 3.346,2.637c1.663,2.121 2.496,4.783 2.496,7.979Zm-2.979,0c-0,-1.262 -0.167,-2.446 -0.504,-3.546c-0.338,-1.104 -0.8,-2.083 -1.392,-2.941c-1.396,-1.721 -3.208,-2.579 -5.438,-2.579c-1.129,-0 -2.141,0.22 -3.041,0.666c-0.9,0.442 -1.7,1.079 -2.396,1.913c-0.621,0.858 -1.096,1.837 -1.433,2.941c-0.338,1.1 -0.505,2.284 -0.505,3.546c0,1.288 0.167,2.484 0.505,3.584c0.337,1.104 0.812,2.07 1.433,2.904c1.421,1.746 3.233,2.616 5.437,2.616c1.13,0 2.142,-0.229 3.042,-0.683c0.9,-0.458 1.7,-1.104 2.396,-1.933c0.592,-0.834 1.054,-1.8 1.392,-2.904c0.337,-1.1 0.504,-2.296 0.504,-3.584Z" style="fill:#fff;fill-rule:nonzero;"/><path d="M342.072,555.769c-0.483,-0.163 -1.129,-0.242 -1.933,-0.242c-1.987,0 -3.462,0.979 -4.433,2.942c-0.75,1.529 -1.125,3.491 -1.125,5.883l-0,10.192c-0,0.375 -0.188,0.562 -0.567,0.562l-1.571,0l-0.562,-0.562l-0,-16.359c-0,-0.966 -0.009,-1.75 -0.021,-2.354c-0.013,-0.604 -0.033,-1.258 -0.058,-1.954c-0,-0.379 0.187,-0.567 0.562,-0.567l1.492,0c0.375,0 0.562,0.188 0.562,0.567l0,3.946c1.317,-3.383 3.25,-5.075 5.8,-5.075c0.621,-0 1.238,0.079 1.854,0.242l0.425,0.262l0.18,0.504l-0,1.692l-0.2,0.321l-0.405,-0Z" style="fill:#fff;fill-rule:nonzero;"/><path d="M346.506,558.427c-0,-1.129 -0.013,-2.021 -0.042,-2.679c-0.029,-0.654 -0.067,-1.279 -0.121,-1.871c0,-0.379 0.188,-0.567 0.563,-0.567l1.491,0c0.38,0 0.567,0.188 0.567,0.567l0,2.175c0.617,-0.996 1.45,-1.779 2.496,-2.358c1.046,-0.579 2.337,-0.867 3.867,-0.867c1.612,0 3.02,0.396 4.233,1.192c1.208,0.791 1.946,1.954 2.212,3.483c0.563,-1.529 1.471,-2.692 2.721,-3.483c1.25,-0.796 2.696,-1.192 4.334,-1.192c1.045,0 1.991,0.188 2.837,0.567c0.846,0.375 1.571,0.891 2.175,1.55c0.604,0.658 1.071,1.429 1.392,2.316c0.321,0.888 0.483,1.825 0.483,2.821l0,14.463l-0.567,0.562l-1.529,0l-0.562,-0.521l-0,-13.941c-0,-3.679 -1.546,-5.517 -4.634,-5.517c-0.941,0 -1.783,0.208 -2.52,0.621c-0.738,0.417 -1.367,0.987 -1.892,1.712c-0.525,0.725 -0.913,1.571 -1.167,2.542c-0.254,0.967 -0.371,1.988 -0.346,3.058l0,11.484c0,0.375 -0.187,0.562 -0.562,0.562l-1.613,0l-0.562,-0.562l-0,-13.9c-0,-3.679 -1.558,-5.517 -4.675,-5.517c-1.825,0 -3.263,0.592 -4.308,1.771c-1.046,1.179 -1.571,2.737 -1.571,4.675l-0,12.971c-0,0.375 -0.188,0.562 -0.567,0.562l-1.571,0l-0.562,-0.562l-0,-16.117Z" style="fill:#fff;fill-rule:nonzero;"/><path d="M383.972,556.698l-0.383,0.058l-0.179,-0.262l-0,-1.529l0.562,-0.846c0.942,-0.513 1.942,-0.867 3,-1.067c1.063,-0.204 2.225,-0.304 3.488,-0.304c2.687,-0 4.646,0.637 5.883,1.912c1.234,1.28 1.85,3.205 1.85,5.784l0,10.112c0,0.804 0.013,1.525 0.042,2.154c0.029,0.63 0.067,1.242 0.121,1.834l-0.563,0.562l-1.45,0c-0.379,0 -0.566,-0.187 -0.566,-0.562l-0,-3.1c-0.563,1.371 -1.513,2.429 -2.842,3.179c-1.329,0.754 -2.771,1.129 -4.329,1.129c-2.713,0 -4.704,-0.792 -5.963,-2.375c-0.429,-0.537 -0.754,-1.162 -0.966,-1.875c-0.217,-0.712 -0.325,-1.417 -0.325,-2.117c-0,-1.637 0.387,-3.045 1.15,-4.229c0.762,-1.179 1.941,-2.066 3.525,-2.658c1.933,-0.696 4.9,-1.046 8.904,-1.046l0.525,0l-0,-1.208c-0,-1.696 -0.384,-2.984 -1.15,-3.871c-0.763,-0.888 -2.046,-1.329 -3.846,-1.329c-1.208,-0 -2.35,0.129 -3.425,0.383c-1.075,0.254 -2.1,0.679 -3.063,1.271Zm11.484,7.05l-0.767,-0c-1.504,-0.054 -2.837,0.004 -4.008,0.179c-1.171,0.175 -2.142,0.408 -2.921,0.704c-1.129,0.404 -1.975,1.004 -2.538,1.796c-0.566,0.792 -0.845,1.738 -0.845,2.838c-0,0.67 0.108,1.295 0.316,1.875c0.217,0.579 0.554,1.029 1.013,1.35c0.804,0.645 1.879,0.966 3.221,0.966c0.941,0 1.808,-0.187 2.6,-0.562c0.791,-0.379 1.483,-0.917 2.075,-1.613c0.591,-0.696 1.05,-1.562 1.37,-2.6c0.321,-1.033 0.484,-2.221 0.484,-3.562l-0,-1.371Z" style="fill:#fff;fill-rule:nonzero;"/><path d="M415.156,575.148c-1.129,0.404 -2.242,0.604 -3.346,0.604c-2.175,0 -3.613,-0.712 -4.308,-2.133c-0.459,-0.967 -0.688,-2.671 -0.688,-5.117l0,-12.854l-3.783,-0c-0.379,-0 -0.567,-0.188 -0.567,-0.563l0,-1.208c0,-0.379 0.188,-0.567 0.567,-0.567l3.783,0l0,-5.437c0,-0.404 0.175,-0.604 0.525,-0.604l1.692,-0c0.35,-0 0.525,0.2 0.525,0.604l-0,5.437l4.471,0c0.379,0 0.566,0.188 0.566,0.567l0,1.208c0,0.375 -0.187,0.563 -0.566,0.563l-4.471,-0l-0,14.221c-0,2.391 0.966,3.587 2.9,3.587c0.754,0 1.6,-0.162 2.537,-0.483l0.384,-0l0.183,0.321l0.079,1.05c0.054,0.375 -0.108,0.641 -0.483,0.804Z" style="fill:#fff;fill-rule:nonzero;"/><path d="M419.064,545.698c0,-0.538 0.188,-1 0.563,-1.392c0.379,-0.387 0.833,-0.583 1.37,-0.583c0.538,-0 1,0.196 1.392,0.583c0.388,0.392 0.583,0.854 0.583,1.392c0,0.537 -0.195,0.992 -0.583,1.371c-0.392,0.375 -0.854,0.562 -1.392,0.562c-0.537,0 -0.991,-0.187 -1.37,-0.562c-0.375,-0.379 -0.563,-0.834 -0.563,-1.371Zm2.858,29.408l-1.77,0l-0.563,-0.562l0,-20.667c0,-0.379 0.188,-0.567 0.563,-0.567l1.77,0c0.38,0 0.567,0.188 0.567,0.567l0,20.667c0,0.375 -0.187,0.562 -0.567,0.562Z" style="fill:#fff;fill-rule:nonzero;"/><path d="M448.314,564.231c0,1.584 -0.229,3.054 -0.687,4.413c-0.455,1.354 -1.059,2.541 -1.813,3.562c-0.937,1.129 -2.058,2 -3.362,2.621c-1.305,0.617 -2.788,0.925 -4.455,0.925c-1.662,0 -3.154,-0.308 -4.47,-0.925c-1.317,-0.621 -2.446,-1.492 -3.384,-2.621c-0.754,-1.021 -1.35,-2.208 -1.791,-3.562c-0.446,-1.359 -0.667,-2.829 -0.667,-4.413c-0,-3.25 0.821,-5.908 2.458,-7.979c1.879,-2.337 4.5,-3.504 7.854,-3.504c1.696,-0 3.188,0.287 4.475,0.867c1.288,0.579 2.405,1.458 3.342,2.637c1.667,2.121 2.5,4.783 2.5,7.979Zm-2.983,0c-0,-1.262 -0.167,-2.446 -0.504,-3.546c-0.338,-1.104 -0.8,-2.083 -1.388,-2.941c-1.396,-1.721 -3.212,-2.579 -5.442,-2.579c-1.129,-0 -2.141,0.22 -3.041,0.666c-0.9,0.442 -1.7,1.079 -2.396,1.913c-0.617,0.858 -1.092,1.837 -1.429,2.941c-0.338,1.1 -0.504,2.284 -0.504,3.546c-0,1.288 0.166,2.484 0.504,3.584c0.337,1.104 0.812,2.07 1.429,2.904c1.425,1.746 3.237,2.616 5.437,2.616c1.13,0 2.146,-0.229 3.042,-0.683c0.9,-0.458 1.7,-1.104 2.4,-1.933c0.588,-0.834 1.05,-1.8 1.388,-2.904c0.337,-1.1 0.504,-2.296 0.504,-3.584Z" style="fill:#fff;fill-rule:nonzero;"/><path d="M471.035,574.544c-0,0.375 -0.188,0.562 -0.563,0.562l-1.612,0l-0.563,-0.562l0,-12.692c0,-2.471 -0.441,-4.221 -1.329,-5.254c-0.887,-1.038 -2.137,-1.554 -3.75,-1.554c-2.175,-0 -3.833,0.604 -4.975,1.812c-1.141,1.209 -1.712,2.9 -1.712,5.079l-0,12.609l-0.563,0.562l-1.612,0l-0.563,-0.562l0,-16.117c0,-1.154 -0.008,-2.05 -0.021,-2.696c-0.012,-0.646 -0.045,-1.262 -0.1,-1.854l0.142,-0.425l0.421,-0.142l1.45,0c0.379,0 0.567,0.188 0.567,0.567l-0,2.217c0.75,-1.154 1.654,-2.004 2.716,-2.542c1.063,-0.537 2.517,-0.804 4.371,-0.804c2.554,-0 4.475,0.737 5.763,2.217c1.287,1.479 1.933,3.558 1.933,6.245l-0,13.334Z" style="fill:#fff;fill-rule:nonzero;"/><path d="M489.206,574.706c-0.429,-0.137 -0.604,-0.379 -0.525,-0.725l0.162,-1.854l0.263,-0.442l0.421,0.038c0.941,0.512 1.887,0.879 2.841,1.108c0.954,0.229 2.046,0.342 3.284,0.342c1.962,-0 3.566,-0.538 4.812,-1.608c1.25,-1.075 1.875,-2.592 1.875,-4.555c0,-0.779 -0.304,-1.558 -0.908,-2.337c-0.604,-0.779 -1.442,-1.517 -2.517,-2.217c-0.937,-0.587 -2,-1.204 -3.183,-1.85c-1.179,-0.646 -2.309,-1.35 -3.384,-2.116c-1.075,-0.767 -1.975,-1.625 -2.7,-2.58c-0.725,-0.954 -1.087,-2.062 -1.087,-3.325c-0,-1.287 0.271,-2.425 0.808,-3.404c0.538,-0.979 1.254,-1.8 2.154,-2.454c0.9,-0.658 1.93,-1.162 3.084,-1.512c1.154,-0.35 2.333,-0.525 3.541,-0.525c1.05,-0 1.98,0.062 2.784,0.183c0.804,0.121 1.679,0.329 2.616,0.625c0.405,0.133 0.563,0.375 0.484,0.725l-0.321,1.571c-0.079,0.454 -0.308,0.575 -0.688,0.362c-0.75,-0.35 -1.483,-0.583 -2.195,-0.704c-0.713,-0.121 -1.617,-0.183 -2.717,-0.183c-0.888,-0 -1.725,0.108 -2.521,0.321c-0.792,0.216 -1.475,0.541 -2.054,0.97c-0.579,0.43 -1.042,0.963 -1.388,1.609c-0.35,0.646 -0.525,1.408 -0.525,2.296c0,0.7 0.234,1.358 0.705,1.975c0.47,0.62 1.045,1.195 1.733,1.733c0.687,0.537 1.425,1.025 2.217,1.471c0.791,0.441 1.508,0.85 2.154,1.229c0.887,0.512 1.746,1.033 2.579,1.571c0.833,0.537 1.571,1.141 2.217,1.812c0.645,0.671 1.166,1.413 1.57,2.217c0.405,0.804 0.605,1.733 0.605,2.779c-0,1.342 -0.275,2.538 -0.825,3.588c-0.555,1.045 -1.284,1.933 -2.196,2.658c-0.913,0.725 -1.967,1.283 -3.163,1.671c-1.196,0.387 -2.441,0.583 -3.729,0.583c-1.179,0 -2.233,-0.079 -3.162,-0.242c-0.925,-0.162 -1.967,-0.429 -3.121,-0.804Z" style="fill:#fff;fill-rule:nonzero;"/><path d="M512.814,564.998c-0.029,1.342 0.125,2.529 0.463,3.562c0.337,1.034 0.825,1.9 1.47,2.6c0.646,0.696 1.417,1.234 2.317,1.613c0.9,0.375 1.9,0.562 3,0.562c1.075,0 2.083,-0.1 3.025,-0.3c0.938,-0.204 1.813,-0.533 2.617,-0.987l0.525,0.279l-0,1.813l-0.446,0.566c-0.888,0.346 -1.813,0.609 -2.779,0.784c-0.967,0.175 -2.013,0.262 -3.142,0.262c-3.304,0 -5.8,-0.958 -7.492,-2.879c-1.695,-1.921 -2.541,-4.817 -2.541,-8.683c-0,-3.413 0.846,-6.163 2.541,-8.259c1.771,-2.121 4.013,-3.183 6.725,-3.183c1.505,-0 2.809,0.267 3.909,0.804c1.104,0.538 2.041,1.346 2.821,2.421c1.37,1.904 2.054,4.458 2.054,7.654l-0.021,0.804l-0.138,0.404l-0.425,0.142c-0.2,0.013 -0.487,0.021 -0.866,0.021l-13.617,-0Zm12.088,-2.3c-0,-1.1 -0.109,-2.079 -0.325,-2.938c-0.213,-0.862 -0.55,-1.641 -1.005,-2.337c-0.995,-1.588 -2.433,-2.379 -4.312,-2.379c-1.933,-0 -3.504,0.804 -4.713,2.416c-0.483,0.725 -0.887,1.559 -1.208,2.5c-0.321,0.938 -0.496,1.85 -0.525,2.738l12.088,-0Z" style="fill:#fff;fill-rule:nonzero;"/><path d="M547.381,575.269c-0.804,0.133 -1.584,0.229 -2.338,0.283c-0.75,0.054 -1.65,0.079 -2.7,0.079c-1.662,0 -3.146,-0.296 -4.45,-0.887c-1.304,-0.588 -2.404,-1.396 -3.304,-2.417c-0.9,-1.021 -1.592,-2.229 -2.075,-3.625c-0.483,-1.396 -0.725,-2.9 -0.725,-4.512c0,-1.638 0.254,-3.15 0.767,-4.534c0.512,-1.383 1.241,-2.579 2.196,-3.583c0.954,-1.008 2.095,-1.8 3.425,-2.379c1.329,-0.579 2.825,-0.867 4.491,-0.867c0.888,0 1.692,0.033 2.417,0.104c0.725,0.067 1.504,0.192 2.337,0.379c0.375,0.109 0.55,0.363 0.521,0.767l-0.121,1.292l-0.604,0.362c-0.696,-0.216 -1.366,-0.371 -2.012,-0.466c-0.646,-0.092 -1.354,-0.138 -2.134,-0.138c-1.37,0 -2.575,0.221 -3.608,0.663c-1.033,0.445 -1.9,1.07 -2.6,1.875c-0.696,0.804 -1.221,1.766 -1.571,2.879c-0.346,1.112 -0.521,2.329 -0.521,3.646c0,1.208 0.18,2.362 0.542,3.466c0.363,1.1 0.888,2.075 1.571,2.921c0.687,0.846 1.521,1.517 2.5,2.013c0.979,0.495 2.1,0.745 3.362,0.745c0.942,0 1.721,-0.041 2.338,-0.12c0.617,-0.08 1.317,-0.23 2.096,-0.442c0.404,-0.108 0.616,-0.017 0.641,0.279l0.121,1.492c0.029,0.404 -0.158,0.646 -0.562,0.725Z" style="fill:#fff;fill-rule:nonzero;"/><path d="M570.222,574.544l-0.562,0.562l-1.45,0l-0.563,-0.562l0,-3.342c-0.7,1.613 -1.633,2.771 -2.8,3.483c-1.17,0.713 -2.641,1.067 -4.412,1.067c-5.021,0 -7.533,-2.808 -7.533,-8.421l-0,-13.454c-0,-0.379 0.187,-0.567 0.562,-0.567l1.613,0c0.375,0 0.562,0.188 0.562,0.567l0,12.729c0,4.567 1.746,6.85 5.238,6.85c1.02,0 1.941,-0.221 2.762,-0.662c0.821,-0.446 1.513,-1.05 2.075,-1.817c0.563,-0.762 0.992,-1.658 1.288,-2.679c0.295,-1.021 0.429,-2.092 0.404,-3.221l-0,-11.2c-0,-0.379 0.187,-0.567 0.562,-0.567l1.613,0c0.375,0 0.562,0.188 0.562,0.567l0,16.196c0,0.887 0.009,1.679 0.021,2.375c0.013,0.7 0.033,1.4 0.058,2.096Z" style="fill:#fff;fill-rule:nonzero;"/><path d="M587.547,555.769c-0.483,-0.163 -1.129,-0.242 -1.933,-0.242c-1.987,0 -3.462,0.979 -4.429,2.942c-0.754,1.529 -1.129,3.491 -1.129,5.883l-0,10.192c-0,0.375 -0.188,0.562 -0.567,0.562l-1.571,0l-0.562,-0.562l-0,-16.359c-0,-0.966 -0.009,-1.75 -0.021,-2.354c-0.013,-0.604 -0.033,-1.258 -0.058,-1.954c-0,-0.379 0.187,-0.567 0.562,-0.567l1.492,0c0.375,0 0.562,0.188 0.562,0.567l0,3.946c1.317,-3.383 3.25,-5.075 5.8,-5.075c0.621,-0 1.238,0.079 1.854,0.242l0.425,0.262l0.18,0.504l-0,1.692l-0.2,0.321l-0.405,-0Z" style="fill:#fff;fill-rule:nonzero;"/><path d="M591.377,545.698c-0,-0.538 0.187,-1 0.562,-1.392c0.379,-0.387 0.833,-0.583 1.371,-0.583c0.537,-0 1,0.196 1.392,0.583c0.387,0.392 0.583,0.854 0.583,1.392c-0,0.537 -0.196,0.992 -0.583,1.371c-0.392,0.375 -0.855,0.562 -1.392,0.562c-0.538,0 -0.992,-0.187 -1.371,-0.562c-0.375,-0.379 -0.562,-0.834 -0.562,-1.371Zm2.858,29.408l-1.771,0l-0.562,-0.562l-0,-20.667c-0,-0.379 0.187,-0.567 0.562,-0.567l1.771,0c0.379,0 0.567,0.188 0.567,0.567l-0,20.667c-0,0.375 -0.188,0.562 -0.567,0.562Z" style="fill:#fff;fill-rule:nonzero;"/><path d="M611.843,575.148c-1.129,0.404 -2.241,0.604 -3.346,0.604c-2.175,0 -3.612,-0.712 -4.308,-2.133c-0.458,-0.967 -0.687,-2.671 -0.687,-5.117l-0,-12.854l-3.788,-0c-0.375,-0 -0.562,-0.188 -0.562,-0.563l-0,-1.208c-0,-0.379 0.187,-0.567 0.562,-0.567l3.788,0l-0,-5.437c-0,-0.404 0.175,-0.604 0.525,-0.604l1.691,-0c0.35,-0 0.525,0.2 0.525,0.604l0,5.437l4.471,0c0.375,0 0.563,0.188 0.563,0.567l-0,1.208c-0,0.375 -0.188,0.563 -0.563,0.563l-4.471,-0l0,14.221c0,2.391 0.967,3.587 2.9,3.587c0.754,0 1.6,-0.162 2.538,-0.483l0.383,-0l0.179,0.321l0.084,1.05l-0.484,0.804Z" style="fill:#fff;fill-rule:nonzero;"/><path d="M614.46,581.073l-0.4,-0.608l0.121,-1.367l0.483,-0.283c0.429,0.162 0.925,0.241 1.488,0.241c0.562,0 1.083,-0.087 1.554,-0.262c0.471,-0.175 0.825,-0.409 1.066,-0.704c0.296,-0.375 0.625,-0.992 0.988,-1.855c0.362,-0.858 0.717,-1.837 1.067,-2.941c-1.209,-3.275 -2.405,-6.513 -3.588,-9.709c-1.179,-3.195 -2.375,-6.433 -3.583,-9.708l-0,-0.383l0.321,-0.184l1.895,0c0.375,0 0.642,0.188 0.805,0.567l5.437,15.629c0.996,-2.737 1.942,-5.35 2.842,-7.833c0.9,-2.488 1.846,-5.083 2.841,-7.796c0.134,-0.379 0.4,-0.567 0.805,-0.567l1.733,0l0.321,0.184l-0,0.383l-8.379,22.479c-0.296,0.779 -0.625,1.479 -0.988,2.096c-0.362,0.617 -0.729,1.113 -1.108,1.492c-0.484,0.454 -1.021,0.796 -1.613,1.025c-0.587,0.229 -1.204,0.346 -1.85,0.346c-0.404,-0 -0.766,-0.013 -1.087,-0.042c-0.321,-0.029 -0.713,-0.096 -1.171,-0.2Z" style="fill:#fff;fill-rule:nonzero;"/><path d="M423.281,640.394l-0,3.446l-15.846,-0c-0.042,-1.396 0.379,-2.955 1.262,-4.684c0.888,-1.729 2.505,-3.766 4.855,-6.116c2.75,-2.738 4.55,-4.855 5.404,-6.35c0.85,-1.496 1.275,-2.888 1.275,-4.175c-0,-1.488 -0.438,-2.7 -1.309,-3.638c-0.87,-0.937 -1.941,-1.408 -3.216,-1.408c-1.371,-0 -2.492,0.504 -3.371,1.516c-0.875,1.013 -1.313,2.459 -1.313,4.346l-3.029,-0.379c0.213,-2.804 1.004,-4.912 2.379,-6.329c1.375,-1.413 3.188,-2.121 5.434,-2.121c2.446,0 4.296,0.825 5.55,2.471c1.254,1.646 1.883,3.521 1.883,5.621c0,1.862 -0.492,3.646 -1.475,5.35c-0.983,1.708 -2.85,3.983 -5.6,6.829c-1.754,1.792 -2.887,3.012 -3.4,3.667c-0.512,0.65 -0.925,1.3 -1.246,1.954l11.763,-0Z" style="fill:#fff;fill-rule:nonzero;"/><path d="M429.397,629.431c0,4.742 0.455,7.921 1.367,9.538c0.913,1.612 2.075,2.421 3.496,2.421c1.346,-0 2.467,-0.817 3.371,-2.455c0.904,-1.633 1.354,-4.8 1.354,-9.504c-0,-4.758 -0.454,-7.941 -1.363,-9.55c-0.912,-1.608 -2.091,-2.412 -3.541,-2.412c-1.329,-0 -2.442,0.816 -3.338,2.454c-0.896,1.633 -1.346,4.804 -1.346,9.508Zm-3.008,0c0,-4.904 0.663,-8.621 1.983,-11.141c1.321,-2.525 3.271,-3.788 5.85,-3.788c2.288,0 4.088,1.021 5.4,3.067c1.596,2.471 2.392,6.425 2.392,11.862c0,4.875 -0.658,8.579 -1.971,11.113c-1.316,2.529 -3.271,3.796 -5.862,3.796c-2.284,-0 -4.154,-1.117 -5.609,-3.35c-1.454,-2.23 -2.183,-6.084 -2.183,-11.559Z" style="fill:#fff;fill-rule:nonzero;"/><path d="M448.014,629.431c0,4.742 0.454,7.921 1.367,9.538c0.912,1.612 2.075,2.421 3.496,2.421c1.345,-0 2.466,-0.817 3.37,-2.455c0.905,-1.633 1.355,-4.8 1.355,-9.504c-0,-4.758 -0.455,-7.941 -1.367,-9.55c-0.908,-1.608 -2.088,-2.412 -3.538,-2.412c-1.329,-0 -2.441,0.816 -3.337,2.454c-0.896,1.633 -1.346,4.804 -1.346,9.508Zm-3.008,0c-0,-4.904 0.662,-8.621 1.983,-11.141c1.321,-2.525 3.271,-3.788 5.85,-3.788c2.288,0 4.088,1.021 5.4,3.067c1.596,2.471 2.392,6.425 2.392,11.862c-0,4.875 -0.659,8.579 -1.971,11.113c-1.317,2.529 -3.271,3.796 -5.863,3.796c-2.283,-0 -4.154,-1.117 -5.608,-3.35c-1.454,-2.23 -2.183,-6.084 -2.183,-11.559Z" style="fill:#fff;fill-rule:nonzero;"/><path d="M466.61,635.41c-0,1.796 0.483,3.238 1.446,4.334c0.962,1.096 2.116,1.646 3.458,1.646c1.354,-0 2.504,-0.534 3.45,-1.596c0.942,-1.063 1.413,-2.488 1.413,-4.267c-0,-1.792 -0.484,-3.237 -1.455,-4.333c-0.97,-1.096 -2.133,-1.646 -3.487,-1.646c-1.342,-0 -2.479,0.546 -3.417,1.637c-0.937,1.088 -1.408,2.496 -1.408,4.225Zm0.979,-13.495c0,1.437 0.379,2.579 1.133,3.429c0.759,0.85 1.688,1.275 2.792,1.275c1.079,-0 1.996,-0.417 2.75,-1.254c0.758,-0.838 1.138,-1.921 1.138,-3.25c-0,-1.371 -0.388,-2.488 -1.167,-3.359c-0.779,-0.871 -1.696,-1.304 -2.758,-1.304c-1.063,0 -1.98,0.425 -2.742,1.275c-0.763,0.85 -1.146,1.913 -1.146,3.188Zm0.558,6.079c-1.183,-0.529 -2.079,-1.292 -2.683,-2.279c-0.604,-0.992 -0.904,-2.225 -0.904,-3.7c-0,-2.221 0.654,-4.025 1.962,-5.421c1.309,-1.396 2.955,-2.092 4.934,-2.092c1.991,0 3.65,0.713 4.971,2.133c1.32,1.421 1.983,3.255 1.983,5.5c-0,1.409 -0.292,2.6 -0.875,3.58c-0.588,0.975 -1.471,1.733 -2.65,2.279c1.446,0.571 2.558,1.496 3.337,2.771c0.78,1.275 1.167,2.858 1.167,4.745c0,2.605 -0.754,4.725 -2.262,6.367c-1.509,1.642 -3.38,2.463 -5.613,2.463c-2.258,-0 -4.142,-0.821 -5.65,-2.463c-1.508,-1.642 -2.262,-3.796 -2.262,-6.467c-0,-1.954 0.4,-3.562 1.204,-4.833c0.804,-1.271 1.921,-2.129 3.341,-2.583Z" style="fill:#fff;fill-rule:nonzero;"/><path d="M257.218,533.49l378.579,-1.617l-378.579,1.617Z" style="fill:#030404;fill-rule:nonzero;"/><path d="M257.235,537.656l378.579,-1.616l-0.033,-8.334l-378.579,1.617" style="fill:#ed1f24;fill-rule:nonzero;"/></g></svg>