<?xml version="1.0" encoding="UTF-8"?><svg id="Ebene_1" xmlns="http://www.w3.org/2000/svg" viewBox="0 0 1576.4 540.72"><defs><style>.cls-1{fill:#5fb56f;}</style></defs><polygon class="cls-1" points="13.41 9.89 188.98 264.61 5.93 530.19 151.68 530.19 334.72 264.61 159.16 9.89 13.41 9.89"/><polygon points="364.6 9.89 303.52 98.5 376.39 204.23 510.34 9.89 364.6 9.89"/><polygon points="517.82 530.19 376.39 324.99 303.52 430.72 372.07 530.19 517.82 530.19"/><path d="M1449.32,337.37c-2.29,17.66-7.47,29.09-16.84,45.24-8.74,15.04-20.07,27.15-33.68,36.01-13.45,8.74-28,13.17-43.25,13.17h-38.34c-19.1,0-37.57-6.66-54.92-19.81-17.57-13.3-31.94-32.84-42.72-58.07-11.63-27.25-16.39-51.59-16.39-83.98s4.86-57.32,16.74-84.28c11.02-25,25.53-44.45,43.13-57.78,17.36-13.15,35.83-19.81,54.91-19.81h37.59c16.2,0,30.85,4.3,43.56,12.76,12.85,8.59,23.4,20.52,31.37,35.48,8.52,15.98,13.19,27.48,15.06,45.99l.58,5.76h119.34l-.7-7.07c-3.59-36.14-14.64-69.7-32.86-99.73-18.27-30.09-42.93-54.18-73.3-71.6-30.4-17.41-65.07-26.24-103.05-26.24h-37.59c-39.53,0-77.5,10.55-112.89,31.37-35.41,20.83-64.65,51.83-86.91,92.13-22.24,40.28-33.52,88.41-33.52,143.02s11.01,103.33,32.74,143.33c21.77,40.09,50.77,70.98,86.18,91.81,35.38,20.82,73.62,31.37,113.64,31.37h38.34c32.99,0,65.35-8.69,96.21-25.84,30.83-17.13,56.61-41.04,76.62-71.05,20.08-30.09,31.57-64.03,34.16-100.87l.48-6.88h-112.97l-.73,5.58Z"/><path d="M905.15,368.57c0,19.09-5.75,33.79-17.56,44.95-11.74,11.09-28.29,16.72-49.18,16.72h-132.06v-124.06h132.06c20.84,0,37.35,5.84,49.09,17.35,11.87,11.66,17.64,26.39,17.64,45.04M706.36,209.8v-106.72h125.55c19.47,0,34.7,4.91,45.27,14.61,10.55,9.69,15.69,22.49,15.69,39.11,0,15.65-5.25,28.09-16.05,38.03-10.79,9.93-26.39,14.97-46.35,14.97h-124.1ZM993.79,294.39c-13.58-18.45-31.27-33.01-52.72-43.42,16.41-9.63,30.35-22.41,41.57-38.12,13.96-19.54,21.04-41.56,21.04-65.44,0-43.22-15-77.32-44.59-101.36-29.21-23.71-70.54-35.73-122.84-35.73h-242.89v519.19h251.56c35.48,0,66.55-6.29,92.34-18.69,26.06-12.53,46.3-30.74,60.14-54.14,13.76-23.28,20.74-50.98,20.74-82.33s-8.19-57.99-24.34-79.97"/></svg>